<svg width="28" height="40" viewBox="0 0 28 40" fill="none" xmlns="http://www.w3.org/2000/svg">
<path fill-rule="evenodd" clip-rule="evenodd" d="M14.001 0C14.8604 3.67188 15.8467 6.60482 16.9437 8.78255C18.0407 10.9603 19.7204 13.3203 21.973 15.8659L22.943 16.9466C25.8857 20.2214 27.3538 23.5059 27.3538 26.7806C27.3538 30.4069 26.0452 33.5156 23.4248 36.1068C20.7946 38.6979 17.6598 40 14.0075 40C10.3649 40 7.23665 38.6979 4.60645 36.1068C1.98275 33.5156 0.670898 30.4069 0.670898 26.7806C0.670898 23.5059 2.139 20.2214 5.08171 16.9466L6.05176 15.8659C8.30111 13.3203 9.98079 10.9603 11.0811 8.78255C12.1748 6.60482 13.1546 3.67188 14.001 0ZM5.16634 24.834C5.09798 24.0918 5.64811 23.4342 6.3903 23.3659C7.13574 23.2975 7.79329 23.8477 7.8584 24.5898C8.02767 26.3867 8.42155 28.0436 9.1735 29.4727C9.89942 30.8529 10.9801 32.041 12.5426 32.9557C13.1872 33.3333 13.402 34.1634 13.0244 34.8047C12.6468 35.4492 11.8167 35.6641 11.1755 35.2865C9.14095 34.0951 7.73145 32.5456 6.77767 30.7324C5.84994 28.9681 5.36816 26.9727 5.16634 24.834Z" fill="#209F84"/>
</svg>
