<svg width="34" height="34" viewBox="0 0 34 34" fill="none" xmlns="http://www.w3.org/2000/svg">
<path d="M16.0893 14.7823V32.5473C15.2393 33.4657 14.0614 34 12.82 34C10.3352 34 8.3134 31.9361 8.3134 29.3995C8.3134 28.9684 8.37978 28.5466 8.49393 28.1386C8.88695 27.8885 9.25893 27.6035 9.57343 27.2461C9.90533 26.8685 9.86931 26.2929 9.49166 25.9606C9.11321 25.6275 8.53845 25.6647 8.20614 26.0424C7.60831 26.722 6.75345 27.1114 5.86136 27.1114C4.12371 27.1114 2.70948 25.6651 2.70948 23.8882C2.70948 22.5222 3.55543 21.3002 4.81545 20.8473C5.28862 20.6773 5.5339 20.1559 5.3639 19.6824C5.19431 19.21 4.67257 18.9655 4.199 19.1339C3.95776 19.2205 3.72664 19.3266 3.50605 19.4472C1.37133 18.3001 0 16.0282 0 13.5559C0 9.87943 2.93331 6.88864 6.53812 6.88864C7.14121 6.88864 7.73864 6.97243 8.31502 7.13757C8.79547 7.27681 9.30264 6.99833 9.44147 6.51383C9.58031 6.03014 9.30102 5.52621 8.81774 5.38738C8.33809 5.24976 7.84509 5.17286 7.34845 5.12388C7.43669 2.28529 9.71388 0 12.5169 0C13.8704 0 15.1284 0.556547 16.0893 1.50126V12.6597C15.5878 13.1094 14.9398 13.3571 14.2654 13.3571C13.6842 13.3571 13.0014 13.003 12.5233 12.4553C12.1926 12.0753 11.6187 12.036 11.2378 12.3671C10.8594 12.6978 10.8193 13.273 11.15 13.6518C11.9838 14.6083 13.1483 15.1786 14.265 15.1786C14.9017 15.1786 15.5178 15.0329 16.0893 14.7823Z" fill="#C50019"/>
<path d="M33.1745 10.3214C33.6987 11.2803 33.9998 12.3821 33.9998 13.5559C33.9998 16.0282 32.6285 18.3001 30.4946 19.4472C30.274 19.3266 30.0429 19.2209 29.8017 19.1339C29.3281 18.9655 28.8063 19.21 28.6367 19.6824C28.4667 20.1559 28.712 20.6773 29.1852 20.8473C30.4452 21.3002 31.2912 22.5222 31.2912 23.8882C31.2912 25.6651 29.8769 27.1114 28.1393 27.1114C27.2468 27.1114 26.3919 26.722 25.7945 26.0424C25.4626 25.6647 24.8874 25.6275 24.509 25.9606C24.1313 26.2925 24.0953 26.8685 24.4272 27.2461C24.7417 27.6035 25.1137 27.8889 25.5067 28.1386C25.6209 28.5466 25.6872 28.9684 25.6872 29.3995C25.6864 31.9361 23.6647 34 21.1798 34C19.9388 34 18.7606 33.4657 17.9106 32.5473V22.6748C18.4821 22.9257 19.0981 23.0714 19.7344 23.0714C20.8726 23.0714 22.0715 22.4809 22.8636 21.5285C23.185 21.1419 23.1316 20.568 22.745 20.2466C22.3597 19.924 21.7845 19.975 21.4619 20.364C21.022 20.8942 20.327 21.2496 19.734 21.2496C19.0585 21.2496 18.4117 21.0019 17.9102 20.5522V1.50126C18.8719 0.556547 20.1299 0 21.483 0C22.2719 0 23.0097 0.19631 23.6784 0.519714V3.03571H20.6427C20.3076 3.03571 20.0356 3.30731 20.0356 3.64286V9.71428C20.0356 10.0494 20.3076 10.3214 20.6427 10.3214H23.6784V13.3571C23.6784 13.6923 23.9504 13.9643 24.2856 13.9643H30.357C30.6921 13.9643 30.9641 13.6923 30.9641 13.3571V10.3214H33.1745Z" fill="#FF8A00"/>
<path d="M32.786 5.46423V7.8928C32.786 8.22795 32.514 8.49995 32.1788 8.49995H29.1431V11.5357C29.1431 11.8708 28.8711 12.1428 28.536 12.1428H26.1074C25.7723 12.1428 25.5003 11.8708 25.5003 11.5357V8.49995H22.4646C22.1294 8.49995 21.8574 8.22795 21.8574 7.8928V5.46423C21.8574 5.12909 22.1294 4.85709 22.4646 4.85709H25.5003V1.82138C25.5003 1.48623 25.7723 1.21423 26.1074 1.21423H28.536C28.8711 1.21423 29.1431 1.48623 29.1431 1.82138V4.85709H32.1788C32.514 4.85709 32.786 5.12909 32.786 5.46423Z" fill="#F7364E"/>
</svg>
