<svg width="36" height="41" viewBox="0 0 36 41" fill="none" xmlns="http://www.w3.org/2000/svg">
<path d="M0 37.1562C0 39.2783 1.72768 41 3.85714 41H32.1429C34.2723 41 36 39.2783 36 37.1562V15.375H0V37.1562ZM25.7143 21.4609C25.7143 20.9324 26.1482 20.5 26.6786 20.5H29.8929C30.4232 20.5 30.8571 20.9324 30.8571 21.4609V24.6641C30.8571 25.1926 30.4232 25.625 29.8929 25.625H26.6786C26.1482 25.625 25.7143 25.1926 25.7143 24.6641V21.4609ZM25.7143 31.7109C25.7143 31.1824 26.1482 30.75 26.6786 30.75H29.8929C30.4232 30.75 30.8571 31.1824 30.8571 31.7109V34.9141C30.8571 35.4426 30.4232 35.875 29.8929 35.875H26.6786C26.1482 35.875 25.7143 35.4426 25.7143 34.9141V31.7109ZM15.4286 21.4609C15.4286 20.9324 15.8625 20.5 16.3929 20.5H19.6071C20.1375 20.5 20.5714 20.9324 20.5714 21.4609V24.6641C20.5714 25.1926 20.1375 25.625 19.6071 25.625H16.3929C15.8625 25.625 15.4286 25.1926 15.4286 24.6641V21.4609ZM15.4286 31.7109C15.4286 31.1824 15.8625 30.75 16.3929 30.75H19.6071C20.1375 30.75 20.5714 31.1824 20.5714 31.7109V34.9141C20.5714 35.4426 20.1375 35.875 19.6071 35.875H16.3929C15.8625 35.875 15.4286 35.4426 15.4286 34.9141V31.7109ZM5.14286 21.4609C5.14286 20.9324 5.57679 20.5 6.10714 20.5H9.32143C9.85179 20.5 10.2857 20.9324 10.2857 21.4609V24.6641C10.2857 25.1926 9.85179 25.625 9.32143 25.625H6.10714C5.57679 25.625 5.14286 25.1926 5.14286 24.6641V21.4609ZM5.14286 31.7109C5.14286 31.1824 5.57679 30.75 6.10714 30.75H9.32143C9.85179 30.75 10.2857 31.1824 10.2857 31.7109V34.9141C10.2857 35.4426 9.85179 35.875 9.32143 35.875H6.10714C5.57679 35.875 5.14286 35.4426 5.14286 34.9141V31.7109ZM32.1429 5.125H28.2857V1.28125C28.2857 0.576562 27.7071 0 27 0H24.4286C23.7214 0 23.1429 0.576562 23.1429 1.28125V5.125H12.8571V1.28125C12.8571 0.576562 12.2786 0 11.5714 0H9C8.29286 0 7.71429 0.576562 7.71429 1.28125V5.125H3.85714C1.72768 5.125 0 6.84668 0 8.96875V12.8125H36V8.96875C36 6.84668 34.2723 5.125 32.1429 5.125Z" fill="#209F84"/>
</svg>
