<svg width="34" height="34" viewBox="0 0 34 34" fill="none" xmlns="http://www.w3.org/2000/svg">
<path d="M33.4445 16.3596L29.3255 15.894C28.645 15.8224 28.0719 15.3209 27.9286 14.6404C27.9286 14.6404 27.9286 14.6404 27.9286 14.6046C27.7854 13.8882 28.1077 13.1719 28.7166 12.8137L30.7582 11.7033C31.1164 11.4884 30.9015 10.9512 30.5075 11.0586L28.2868 11.7033C27.6063 11.9183 26.8541 11.6317 26.4601 10.987C26.4601 10.987 26.4601 10.987 26.4601 10.9512C26.102 10.3781 26.1378 9.59012 26.5676 9.05286L29.1464 5.79347C29.6121 5.18457 28.8599 4.43241 28.251 4.89803L24.9916 7.47689C24.4543 7.9067 23.7022 7.94252 23.0933 7.58434C23.0933 7.58434 23.0933 7.58434 23.0575 7.58434C22.4486 7.19035 22.162 6.43818 22.3411 5.75765L22.9858 3.53697C23.0933 3.14298 22.556 2.89226 22.3411 3.28625L21.2308 5.32784C20.8726 5.97256 20.1563 6.29491 19.4399 6.11583C19.4399 6.11583 19.4399 6.11583 19.4041 6.11583C18.7236 5.97256 18.2221 5.39948 18.1505 4.71895L17.649 0.564125C17.5774 -0.188042 16.4671 -0.188042 16.3596 0.564125L15.894 4.68313C15.8223 5.36366 15.3209 5.93674 14.6404 6.08001H14.6046C13.8882 6.22328 13.1719 5.90092 12.8137 5.25621L11.7033 3.25043C11.4884 2.89226 10.9512 3.10716 11.0586 3.50115L11.7033 5.72184C11.9182 6.40237 11.6317 7.15453 11.0228 7.54852H10.987C10.4139 7.9067 9.62593 7.87088 9.08867 7.44107L5.82929 4.86222C5.22039 4.39659 4.46822 5.14876 4.93385 5.75765L7.51271 9.01704C7.94251 9.5543 7.97833 10.3065 7.62016 10.9154C7.62016 10.9154 7.62016 10.9154 7.62016 10.9512C7.22617 11.5601 6.474 11.8466 5.79347 11.6675L3.57279 11.0228C3.1788 10.9154 2.92808 11.4526 3.32207 11.6675L5.36366 12.7779C6.00837 13.136 6.33073 13.8524 6.15164 14.5687C6.15164 14.5687 6.15164 14.5687 6.15164 14.6046C6.00837 15.2851 5.4353 15.7865 4.75476 15.8582L0.564124 16.3596C-0.188042 16.4312 -0.188042 17.5416 0.564124 17.649L4.68313 18.1147C5.36366 18.1863 5.93674 18.6877 6.08001 19.3683C6.08001 19.3683 6.08001 19.3683 6.08001 19.4041C6.22328 20.1204 5.90092 20.8368 5.29203 21.195L3.25043 22.3053C2.89226 22.5202 3.10716 23.0575 3.50115 22.95L5.72183 22.3053C6.40237 22.0904 7.15453 22.3769 7.54852 23.0217C7.54852 23.0217 7.54852 23.0217 7.54852 23.0575C7.9067 23.6306 7.87088 24.4185 7.44107 24.9558L4.86222 28.2152C4.39659 28.8241 5.14876 29.5762 5.75765 29.1106L9.01704 26.5318C9.5543 26.102 10.3065 26.0661 10.9154 26.4243C10.9154 26.4243 10.9154 26.4243 10.9512 26.4243C11.5601 26.8183 11.8466 27.5705 11.6675 28.251L11.0228 30.4717C10.9154 30.8657 11.4526 31.1164 11.6675 30.7224L12.7779 28.6808C13.136 28.0361 13.8524 27.7137 14.5687 27.8928C14.5687 27.8928 14.5687 27.8928 14.6046 27.8928C15.2851 28.0361 15.7865 28.6092 15.8582 29.2897L16.3238 33.4087C16.3954 34.1609 17.5058 34.1609 17.6132 33.4087L18.0788 29.2897C18.1505 28.6092 18.6519 28.0361 19.3325 27.8928C19.3325 27.8928 19.3325 27.8928 19.3683 27.8928C20.0846 27.7496 20.801 28.0719 21.1591 28.6808L22.2695 30.7224C22.4844 31.0806 23.0217 30.8657 22.9142 30.4717L22.2695 28.251C22.0546 27.5705 22.3411 26.8183 22.9858 26.4243C22.9858 26.4243 22.9858 26.4243 23.0217 26.4243C23.5947 26.0661 24.3827 26.102 24.92 26.5318L28.1794 29.1106C28.7883 29.5762 29.5404 28.8241 29.0748 28.2152L26.4959 24.9558C26.0661 24.4185 26.0303 23.6664 26.3885 23.0575C26.3885 23.0575 26.3885 23.0575 26.3885 23.0217C26.7825 22.4128 27.5347 22.1262 28.2152 22.3053L30.4359 22.95C30.8299 23.0575 31.0806 22.5202 30.6866 22.3053L28.645 21.195C28.0003 20.8368 27.6779 20.1204 27.857 19.4041C27.857 19.4041 27.857 19.4041 27.857 19.3683C28.0003 18.6877 28.5734 18.1863 29.2539 18.1147L33.3729 17.649C34.1967 17.5416 34.1967 16.4671 33.4445 16.3596ZM11.5243 22.1979C10.7363 22.1979 10.0916 21.5531 10.0916 20.7652C10.0916 19.9772 10.7363 19.3325 11.5243 19.3325C12.3122 19.3325 12.957 19.9772 12.957 20.7652C12.957 21.5531 12.3122 22.1979 11.5243 22.1979ZM13.6733 16.1805C13.2077 16.4671 12.6704 16.6103 12.1332 16.6103C11.8824 16.6103 11.6675 16.5745 11.4168 16.5387C10.6646 16.3596 9.98411 15.8582 9.59012 15.2135C9.44685 14.9627 9.51848 14.6046 9.7692 14.4613C10.0199 14.318 10.3781 14.3897 10.5214 14.6404C10.7721 15.0702 11.1661 15.3567 11.6675 15.4642C12.1332 15.5716 12.6346 15.5 13.0644 15.2493C13.3151 15.106 13.6733 15.1776 13.8166 15.4284C14.0315 15.6791 13.9598 16.0373 13.6733 16.1805ZM13.3868 12.7421C12.5988 12.7421 11.9541 12.0973 11.9541 11.3094C11.9541 10.5214 12.5988 9.87666 13.3868 9.87666C14.1747 9.87666 14.8195 10.5214 14.8195 11.3094C14.8195 12.0973 14.1747 12.7421 13.3868 12.7421ZM23.1291 11.8466C23.9171 11.8466 24.5618 12.4913 24.5618 13.2793C24.5618 14.0673 23.9171 14.712 23.1291 14.712C22.3411 14.712 21.6964 14.0673 21.6964 13.2793C21.7322 12.4913 22.3411 11.8466 23.1291 11.8466ZM17.8998 25.4214C17.7923 25.6005 17.6132 25.708 17.3983 25.708C17.3267 25.708 17.2192 25.6721 17.1476 25.6363C15.7149 24.8842 15.1418 23.0933 15.894 21.6606C16.0373 21.3741 16.3596 21.2666 16.6462 21.4099C16.9327 21.5531 17.0401 21.8755 16.8969 22.162C16.4312 23.0575 16.7894 24.2036 17.6849 24.6693C17.9356 24.8125 18.043 25.1349 17.8998 25.4214ZM17.3983 18.7952C16.6103 18.7952 15.9656 18.1505 15.9656 17.3625C15.9656 16.5745 16.6103 15.9298 17.3983 15.9298C18.1863 15.9298 18.831 16.5745 18.831 17.3625C18.831 18.1505 18.1863 18.7952 17.3983 18.7952ZM19.9414 10.0557C18.9743 10.4139 18.5087 11.4884 18.8668 12.4197C18.9743 12.7062 18.831 13.0286 18.5445 13.136C18.4728 13.1719 18.4012 13.1719 18.3654 13.1719C18.1505 13.1719 17.9356 13.0286 17.8639 12.8137C17.2909 11.2735 18.0788 9.59012 19.619 9.01704C19.9055 8.90959 20.2279 9.05286 20.3353 9.3394C20.3712 9.62593 20.2279 9.94829 19.9414 10.0557ZM21.4815 23.738C20.6935 23.738 20.0488 23.0933 20.0488 22.3053C20.0488 21.5173 20.6935 20.8726 21.4815 20.8726C22.2695 20.8726 22.9142 21.5173 22.9142 22.3053C22.9142 23.0933 22.2337 23.738 21.4815 23.738ZM25.1707 19.4399C25.0991 19.4757 25.0274 19.5115 24.92 19.5115C24.7051 19.5115 24.526 19.4041 24.4185 19.1892C23.9887 18.2579 22.8784 17.8639 21.9471 18.3296C21.6606 18.4728 21.3382 18.3296 21.195 18.0788C21.0517 17.7923 21.195 17.47 21.4457 17.3267C22.9142 16.6103 24.6693 17.255 25.3856 18.7236C25.5647 18.9743 25.4214 19.2966 25.1707 19.4399Z" fill="#FF8A00"/>
<path d="M10.221 22.8564C9.32916 22.8564 8.59943 22.1267 8.59943 21.2348C8.59943 20.3429 9.32916 19.6132 10.221 19.6132C11.1129 19.6132 11.8427 20.3429 11.8427 21.2348C11.8427 22.1267 11.1129 22.8564 10.221 22.8564ZM12.6535 16.0457C12.1264 16.37 11.5183 16.5321 10.9102 16.5321C10.6264 16.5321 10.3832 16.4916 10.0994 16.4511C9.24808 16.2484 8.47781 15.6808 8.03187 14.9511C7.86971 14.6673 7.95079 14.2619 8.23457 14.0997C8.51835 13.9376 8.92375 14.0186 9.08591 14.3024C9.3697 14.7889 9.81564 15.1132 10.3832 15.2348C10.9102 15.3565 11.4778 15.2754 11.9643 14.9916C12.2481 14.8294 12.6535 14.9105 12.8156 15.1943C13.0589 15.4781 12.9778 15.8835 12.6535 16.0457ZM12.3291 12.1538C11.4373 12.1538 10.7075 11.4241 10.7075 10.5322C10.7075 9.64029 11.4373 8.91056 12.3291 8.91056C13.221 8.91056 13.9507 9.64029 13.9507 10.5322C13.9507 11.4241 13.221 12.1538 12.3291 12.1538ZM23.3561 11.1403C24.248 11.1403 24.9777 11.87 24.9777 12.7619C24.9777 13.6538 24.248 14.3835 23.3561 14.3835C22.4642 14.3835 21.7345 13.6538 21.7345 12.7619C21.775 11.87 22.4642 11.1403 23.3561 11.1403ZM17.4372 26.505C17.3156 26.7077 17.1129 26.8294 16.8696 26.8294C16.7886 26.8294 16.6669 26.7888 16.5859 26.7483C14.9643 25.8969 14.3156 23.8699 15.167 22.2483C15.3291 21.924 15.694 21.8024 16.0183 21.9645C16.3426 22.1267 16.4642 22.4916 16.3021 22.8159C15.7751 23.8294 16.1805 25.1267 17.194 25.6537C17.4778 25.8159 17.5994 26.1807 17.4372 26.505ZM16.8696 19.0051C15.9778 19.0051 15.248 18.2754 15.248 17.3835C15.248 16.4916 15.9778 15.7619 16.8696 15.7619C17.7615 15.7619 18.4913 16.4916 18.4913 17.3835C18.4913 18.2754 17.7615 19.0051 16.8696 19.0051ZM19.748 9.11326C18.6534 9.51867 18.1264 10.7349 18.5318 11.7889C18.6534 12.1132 18.4913 12.4781 18.1669 12.5997C18.0859 12.6403 18.0048 12.6403 17.9642 12.6403C17.721 12.6403 17.4777 12.4781 17.3967 12.2349C16.748 10.4916 17.6399 8.58624 19.3831 7.9376C19.7075 7.81598 20.0723 7.97814 20.1939 8.30246C20.2345 8.62678 20.0723 8.99164 19.748 9.11326ZM21.4912 24.5996C20.5993 24.5996 19.8696 23.8699 19.8696 22.978C19.8696 22.0862 20.5993 21.3564 21.4912 21.3564C22.3831 21.3564 23.1128 22.0862 23.1128 22.978C23.1128 23.8699 22.3426 24.5996 21.4912 24.5996ZM25.6669 19.7348C25.5858 19.7754 25.5047 19.8159 25.3831 19.8159C25.1399 19.8159 24.9372 19.6943 24.8155 19.451C24.3291 18.397 23.0723 17.951 22.0183 18.4781C21.6939 18.6402 21.3291 18.4781 21.1669 18.1943C21.0048 17.87 21.1669 17.5051 21.4507 17.3429C23.1128 16.5321 25.0993 17.2619 25.9101 18.924C26.1128 19.2078 25.9507 19.5727 25.6669 19.7348Z" fill="#F72B50"/>
</svg>
