<svg width="34" height="25" viewBox="0 0 34 25" fill="none" xmlns="http://www.w3.org/2000/svg">
<path d="M0.579863 21.2018H4.39896C5.40273 21.2018 6.3945 21.5457 7.19431 22.1736C8.98589 23.5812 11.7492 24.449 15.0885 24.669C14.6685 24.2291 14.4086 23.6372 14.4086 22.9854C14.4086 21.8816 15.1444 20.9459 16.1562 20.6499C15.6403 20.202 15.3124 19.5422 15.3124 18.8064C15.3124 17.5866 16.2162 16.5709 17.3879 16.3949C16.916 15.951 16.6241 15.3232 16.6241 14.6233C16.6241 13.2797 17.7158 12.1879 19.0595 12.1879H32.2564C32.7203 12.1879 33.1602 12.008 33.4881 11.676C33.816 11.3481 34 10.9082 34 10.4443C34 9.48455 33.2162 8.70073 32.2564 8.70073H15.4804C15.5523 9.47255 15.5603 10.1924 15.4964 10.8522C15.4044 11.796 15.1724 12.6478 14.8005 13.3756C14.0247 14.9073 12.617 15.979 10.6255 16.5549C10.4415 16.6069 10.2496 16.5029 10.1976 16.3189C10.1456 16.135 10.2496 15.943 10.4335 15.891C13.9607 14.8713 15.3524 12.2719 14.6845 7.94091C14.6326 7.59699 14.7245 7.24108 14.9365 6.96914L18.1517 2.80612C18.7396 2.0463 18.5996 0.950556 17.8398 0.362695C17.4719 0.0787614 17.016 -0.0452098 16.5521 0.0147761C16.0922 0.074762 15.6803 0.310707 15.3964 0.678621L12.1371 4.89363C11.9852 5.08958 11.8132 5.26554 11.6213 5.4215C9.48977 7.1331 8.03411 8.69673 7.16631 10.1964C6.3705 11.5801 4.87485 12.4359 3.27123 12.4359H0.579863C0.259939 12.4359 0 12.6958 0 13.0157V20.6339C0 20.9419 0.259939 21.2018 0.579863 21.2018Z" fill="#FF8A00"/>
</svg>
