<svg width="54" height="54" viewBox="0 0 54 54" fill="none" xmlns="http://www.w3.org/2000/svg">
<path d="M40.1789 22.6142L31.384 13.8193C30.9953 13.4307 30.4682 13.2124 29.9186 13.2124C29.3689 13.2124 28.8418 13.4307 28.4531 13.8193L13.7963 28.4761C13.4078 28.8648 13.1895 29.3919 13.1895 29.9415C13.1895 30.4911 13.4078 31.0183 13.7963 31.407L22.5912 40.2019C22.9799 40.5905 23.5071 40.8088 24.0567 40.8088C24.6063 40.8088 25.1335 40.5905 25.5222 40.2019L40.1789 25.5451C40.5675 25.1564 40.7858 24.6293 40.7858 24.0796C40.7858 23.53 40.5675 23.0029 40.1789 22.6142Z" fill="#FFB800"/>
<path d="M22.591 46.0638L7.9363 31.4091C7.5476 31.0205 7.02047 30.8022 6.47083 30.8022C5.9212 30.8022 5.39407 31.0205 5.00537 31.4091L0.606888 35.8055C0.218298 36.1942 0 36.7214 0 37.271C0 37.8206 0.218298 38.3478 0.606888 38.7365L15.2636 53.3932C15.6524 53.7818 16.1795 54.0001 16.7291 54.0001C17.2787 54.0001 17.8059 53.7818 18.1946 53.3932L22.591 48.9948C22.9796 48.606 23.1979 48.0789 23.1979 47.5293C23.1979 46.9797 22.9796 46.4525 22.591 46.0638Z" fill="#1400FF"/>
<path d="M31.3862 43.133L10.8655 22.6123C10.4768 22.2237 9.94968 22.0054 9.40005 22.0054C8.85042 22.0054 8.32329 22.2237 7.93458 22.6123L2.07271 28.4762C1.68412 28.8649 1.46582 29.392 1.46582 29.9417C1.46582 30.4913 1.68412 31.0184 2.07271 31.4071L22.5934 51.9279C22.9821 52.3164 23.5093 52.5347 24.0589 52.5347C24.6085 52.5347 25.1356 52.3164 25.5244 51.9279L31.3862 46.0639C31.7748 45.6752 31.9931 45.1481 31.9931 44.5984C31.9931 44.0488 31.7748 43.5217 31.3862 43.133Z" fill="#2781D5"/>
<path d="M53.3713 15.2848L38.7145 0.628088C38.3185 0.253592 37.7941 0.0449219 37.249 0.0449219C36.704 0.0449219 36.1796 0.253592 35.7836 0.628088L31.3872 5.02657C30.9986 5.41527 30.7803 5.9424 30.7803 6.49204C30.7803 7.04167 30.9986 7.5688 31.3872 7.9575L46.0418 22.6122C46.4306 23.0008 46.9577 23.2191 47.5073 23.2191C48.0569 23.2191 48.5841 23.0008 48.9728 22.6122L53.3713 18.2158C53.7599 17.8271 53.9781 17.2999 53.9781 16.7503C53.9781 16.2007 53.7599 15.6736 53.3713 15.2848Z" fill="#1400FF"/>
<path d="M51.9058 22.6144L31.3851 2.0937C30.9963 1.70511 30.4692 1.48682 29.9196 1.48682C29.37 1.48682 28.8428 1.70511 28.4541 2.0937L22.5922 7.95765C22.2036 8.34636 21.9854 8.87349 21.9854 9.42312C21.9854 9.97275 22.2036 10.4999 22.5922 10.8886L43.1129 31.4093C43.5017 31.7979 44.0288 32.0162 44.5784 32.0162C45.128 32.0162 45.6552 31.7979 46.0439 31.4093L51.9078 25.5474C52.1004 25.3548 52.2531 25.1261 52.3573 24.8744C52.4614 24.6227 52.5149 24.3529 52.5147 24.0805C52.5145 23.8081 52.4606 23.5384 52.3562 23.2868C52.2517 23.0353 52.0986 22.8068 51.9058 22.6144Z" fill="#2781D5"/>
</svg>
