<svg width="46" height="40" viewBox="0 0 46 40" fill="none" xmlns="http://www.w3.org/2000/svg">
<path d="M15.8134 28.1197V31.5749H21.9138V35.715H15.8134V40H11.7021V35.715H5.60086V31.5749H11.7021V28.0437C8.75797 27.5505 6.12465 26.1343 4.10496 24.0999C1.56957 21.5461 0 18.0159 0 14.1182C0 10.2197 1.56957 6.68944 4.10496 4.13475C6.64125 1.58096 10.1452 0 14.0156 0C17.4342 0 20.567 1.23346 23 3.28228C25.4321 1.23346 28.5658 0 31.9844 0C35.8548 0 39.3587 1.58096 41.895 4.13475C44.4304 6.68944 46 10.2197 46 14.1182C46 18.0159 44.4304 21.5461 41.895 24.0999C39.7577 26.2528 36.933 27.7134 33.7812 28.1197V31.5749H39.8825V35.715H33.7812V40H29.6709V35.715H23.5696V31.5749H29.6709V28.0437C27.1589 27.6229 24.8714 26.5297 23 24.9533C21.001 26.6365 18.5285 27.7704 15.8134 28.1197ZM20.2625 21.8601C18.8124 19.6376 17.9688 16.9761 17.9688 14.1182C17.9688 11.2586 18.8124 8.598 20.2625 6.37452C18.559 4.97817 16.3839 4.14108 14.0156 4.14108C11.2808 4.14108 8.80379 5.2578 7.0123 7.06319C5.21992 8.86767 4.11125 11.3626 4.11125 14.1182C4.11125 16.8729 5.21992 19.3679 7.0123 21.1724C8.80379 22.9778 11.2808 24.0945 14.0156 24.0945C16.3839 24.0945 18.5581 23.2574 20.2625 21.8601ZM23 9.91109C22.4097 11.1898 22.0791 12.6151 22.0791 14.1182C22.0791 15.6205 22.4097 17.0458 23 18.3245C23.5912 17.0458 23.9209 15.6205 23.9209 14.1182C23.9209 12.6151 23.5912 11.1898 23 9.91109Z" fill="#209F84"/>
</svg>
