<svg width="33" height="34" viewBox="0 0 33 34" fill="none" xmlns="http://www.w3.org/2000/svg">
<path fill-rule="evenodd" clip-rule="evenodd" d="M10.1505 13.1003C8.17746 10.9311 5.75656 9.60453 2.96116 9.60453C1.32575 9.60453 0 10.9303 0 12.5655C0 14.201 1.32575 15.5267 2.96116 15.5267C3.88714 15.5267 4.65702 15.9966 5.34388 16.643C5.63139 16.9136 5.9033 17.2148 6.16172 17.5397L6.16371 17.5423C6.56561 18.0406 6.65828 18.7205 6.40454 19.3083L6.40269 19.3124C4.13748 24.7088 3.2525 30.6101 3.2525 30.6101L3.25222 30.6121C3.01665 32.2303 4.13762 33.7332 5.75585 33.9687C7.37423 34.2043 8.87709 33.0833 9.11266 31.4651C9.11266 31.4651 9.41678 29.3602 10.1508 26.626C10.8843 29.3605 11.1884 31.4645 11.1884 31.4645C11.424 33.0828 12.9269 34.2043 14.5452 33.9687C16.1635 33.7332 17.2844 32.2303 17.0489 30.6121L17.0486 30.6101C17.0486 30.6101 16.1636 24.7086 13.8946 19.3137L13.8929 19.3097C13.6384 18.7207 13.7312 18.0393 14.1338 17.5399C14.3961 17.2165 14.6688 16.9143 14.9572 16.643C15.6441 15.9966 16.4139 15.5267 17.3399 15.5267C18.9753 15.5267 20.3011 14.201 20.3011 12.5655C20.3011 10.9303 18.9753 9.60453 17.3399 9.60453C14.5445 9.60453 12.1235 10.9311 10.1505 13.1003ZM10.1506 0C7.42901 0 5.21942 2.20944 5.21942 4.93105C5.21942 7.65252 7.42901 9.86211 10.1506 9.86211C12.8721 9.86211 15.0817 7.65252 15.0817 4.93105C15.0817 2.20944 12.8721 0 10.1506 0Z" fill="#FF8A00"/>
<path fill-rule="evenodd" clip-rule="evenodd" d="M17.2558 6.85726L20.6887 4.43481H32.374C32.6188 4.43481 32.8174 4.23599 32.8174 3.99133C32.8174 3.74653 32.6188 3.54785 32.374 3.54785H20.5479C20.4564 3.54785 20.367 3.57609 20.2922 3.62888L16.7444 6.13251C16.5444 6.27372 16.4966 6.55059 16.6378 6.75055C16.7788 6.9505 17.0559 6.99833 17.2558 6.85726Z" fill="#C50019"/>
<path fill-rule="evenodd" clip-rule="evenodd" d="M21.3566 8.08813H32.3734C32.6182 8.08813 32.8169 7.88945 32.8169 7.64465C32.8169 7.39985 32.6182 7.20117 32.3734 7.20117H21.3566C21.1118 7.20117 20.9131 7.39985 20.9131 7.64465C20.9131 7.88945 21.1118 8.08813 21.3566 8.08813Z" fill="#C50019"/>
<path fill-rule="evenodd" clip-rule="evenodd" d="M21.3566 11.636H32.3734C32.6182 11.636 32.8169 11.4373 32.8169 11.1925C32.8169 10.9477 32.6182 10.749 32.3734 10.749H21.3566C21.1118 10.749 20.9131 10.9477 20.9131 11.1925C20.9131 11.4373 21.1118 11.636 21.3566 11.636Z" fill="#C50019"/>
<path d="M29.1077 17.8684V20.3029H31.5422C31.7872 20.3029 31.9857 20.5015 31.9857 20.7464V24.344C31.9857 24.589 31.7872 24.7875 31.5422 24.7875H29.1077V27.222C29.1077 27.467 28.9092 27.6655 28.6642 27.6655H25.0666C24.8217 27.6655 24.6231 27.467 24.6231 27.222V24.7875H22.1886C21.9437 24.7875 21.7451 24.589 21.7451 24.344V20.7464C21.7451 20.5015 21.9437 20.3029 22.1886 20.3029H24.6231V17.8684C24.6231 17.6235 24.8217 17.4249 25.0666 17.4249H28.6642C28.9092 17.4249 29.1077 17.6235 29.1077 17.8684Z" fill="#F7364E"/>
</svg>
