<svg width="53" height="39" viewBox="0 0 53 39" fill="none" xmlns="http://www.w3.org/2000/svg">
<g clip-path="url(#clip0_622_20)">
<path fill-rule="evenodd" clip-rule="evenodd" d="M52.435 17.2412C52.8016 17.851 53 18.5037 53 19.1779C53 22.7593 47.436 25.6622 40.5781 25.6622C33.7202 25.6622 28.1562 22.7593 28.1562 19.1779C28.1562 18.5037 28.3547 17.851 28.7213 17.2412C30.2999 19.8736 35.0098 21.7888 40.5781 21.7888C46.1464 21.7888 50.8564 19.8779 52.435 17.2412ZM24.2787 26.8989C24.6453 27.513 24.8438 28.1614 24.8438 28.8356C24.8438 32.417 19.2798 35.3199 12.4219 35.3199C5.56396 35.3199 0 32.417 0 28.8356C0 28.1614 0.198405 27.5087 0.565023 26.8989C2.14364 29.5313 6.85791 31.4465 12.4219 31.4465C17.9902 31.4465 22.7001 29.5356 24.2787 26.8989ZM14.2248 17.4173L14.1989 15.8113C14.5655 15.7984 14.8631 15.6867 15.0917 15.4806C15.3246 15.2745 15.4497 15.0254 15.4756 14.7334C15.5058 14.3985 15.3936 14.1065 15.1435 13.8488C14.8933 13.5955 14.4879 13.4409 13.9401 13.3936C13.4268 13.3507 13.03 13.4323 12.754 13.6384C12.4779 13.8445 12.3227 14.1322 12.2925 14.5015C12.2537 14.961 12.4219 15.3904 12.7971 15.7898L12.4952 17.0695L8.20793 15.8714L8.57454 11.6459L10.0755 11.7747L9.81242 14.7893L11.2142 15.1629C11.0675 14.7893 11.0072 14.42 11.0417 14.0464C11.1021 13.3378 11.4169 12.7581 11.9733 12.3115C12.534 11.8649 13.2284 11.676 14.0566 11.749C14.7467 11.8091 15.3419 12.0581 15.8465 12.5047C16.5366 13.1102 16.8429 13.8961 16.7566 14.858C16.6876 15.6266 16.4288 16.2364 15.9716 16.6873C15.5187 17.1425 14.9364 17.3873 14.2248 17.4173ZM12.4219 10.976C18.0592 10.976 22.6311 12.7624 22.6311 14.961C22.6311 17.1639 18.0592 18.946 12.4219 18.946C6.78459 18.946 2.21265 17.1682 2.21265 14.9653C2.21265 12.7624 6.78459 10.976 12.4219 10.976ZM12.4219 9.65767C19.2798 9.65767 24.8438 12.5606 24.8438 16.1419C24.8438 19.7233 19.2798 22.6262 12.4219 22.6262C5.56396 22.6219 0 19.719 0 16.1419C0 12.5606 5.56396 9.65767 12.4219 9.65767ZM24.3219 20.4619C24.6583 21.0502 24.8438 21.6772 24.8438 22.3213C24.8438 25.9027 19.2798 28.8055 12.4219 28.8055C5.56396 28.8055 0 25.9027 0 22.3256C0 21.6772 0.181152 21.0545 0.521891 20.4662C2.05737 23.1372 6.80184 25.0868 12.4219 25.0868C18.0419 25.0825 22.7907 23.1372 24.3219 20.4619ZM45.0638 3.84332L44.9215 5.45364L38.8227 4.92546C39.3273 5.561 39.6724 6.29102 39.8665 7.11121L38.4 6.98238C38.3008 6.55296 38.0765 6.07201 37.7358 5.54812C37.3907 5.01993 36.9723 4.64633 36.472 4.41874L36.5885 3.1133L45.0638 3.84332ZM40.5781 1.32262C46.2154 1.32262 50.7874 3.10901 50.7874 5.30764C50.7874 7.51057 46.2154 9.29267 40.5781 9.29267C34.9408 9.29267 30.3689 7.50628 30.3689 5.30764C30.3689 3.10471 34.9408 1.32262 40.5781 1.32262ZM40.5781 0C47.436 0 53 2.90288 53 6.48425C53 10.0656 47.436 12.9685 40.5781 12.9685C33.7202 12.9685 28.1562 10.0656 28.1562 6.48425C28.1562 2.90288 33.7202 0 40.5781 0ZM52.4781 10.8042C52.8145 11.3925 53 12.0195 53 12.6636C53 16.245 47.436 19.1479 40.5781 19.1479C33.7202 19.1479 28.1562 16.245 28.1562 12.6636C28.1562 12.0152 28.3374 11.3925 28.6781 10.8042C30.2093 13.4752 34.9581 15.4248 40.5781 15.4248C46.1982 15.4291 50.9469 13.4795 52.4781 10.8042ZM52.3573 30.4545C52.7714 31.1029 53 31.7943 53 32.5157C53 36.0971 47.436 39 40.5781 39C33.7202 39 28.1562 36.0971 28.1562 32.5157C28.1562 31.7943 28.3805 31.1029 28.7989 30.4545C30.4508 33.0225 35.1004 34.8776 40.5781 34.8776C46.0558 34.8776 50.7097 33.0268 52.3573 30.4545ZM52.4177 23.7856C52.7973 24.4083 53 25.0653 53 25.7524C53 29.3337 47.436 32.2366 40.5781 32.2366C33.7202 32.2366 28.1562 29.3337 28.1562 25.7524C28.1562 25.0653 28.3633 24.404 28.7385 23.7856C30.3344 26.4051 35.0314 28.2988 40.5781 28.2988C46.1248 28.2988 50.8175 26.4051 52.4177 23.7856Z" fill="#555B2F"/>
</g>
<defs>
<clipPath id="clip0_622_20">
<rect width="53" height="39" fill="white"/>
</clipPath>
</defs>
</svg>
