<svg width="34" height="24" viewBox="0 0 34 24" fill="none" xmlns="http://www.w3.org/2000/svg">
<path d="M18.1721 12.8374C18.1721 9.21285 19.4858 5.79116 21.8857 3.11278C21.0779 2.79564 19.4952 2.34485 16.9997 2.34485C14.5054 2.34485 12.9232 2.79506 12.1143 3.11278C14.5136 5.79175 15.8273 9.21343 15.8273 12.8374V19.9311H15.8162C15.8197 20.0178 15.8273 20.1034 15.8273 20.1902V23.4483H18.1721V20.1902C18.1721 20.1034 18.1797 20.0172 18.1833 19.9311H18.1721V12.8374Z" fill="#F7364E"/>
<path d="M8.5008 7.24494C7.46263 8.49122 6.11201 9.40687 4.58084 9.92039L4.57439 9.9538L4.51518 9.94208C4.41084 9.97608 4.30825 10.0142 4.20215 10.0441C3.45356 10.2586 2.93066 10.9515 2.93066 11.73C2.93066 12.6967 3.71677 13.4828 4.68342 13.4828H5.09787C5.7468 13.4828 6.34884 13.1604 6.70877 12.6205C6.92156 12.3016 7.03411 11.9299 7.03411 11.5465V10.346L9.43053 7.35046L9.15618 6.45825L8.5008 7.24494Z" fill="#C50019"/>
<path d="M4.44217 8.73218C5.67086 8.27494 6.75476 7.50994 7.60066 6.49463L8.74493 5.12115L8.61186 4.6897H5.92411C4.87597 4.6897 3.83662 5.03615 2.99893 5.66456C2.58917 5.97232 2.34473 6.46063 2.34473 6.97239C2.34473 7.74911 2.89752 8.42325 3.65842 8.57508L4.44217 8.73218Z" fill="#C50019"/>
<path d="M29.7977 10.0446C29.6916 10.0141 29.589 9.97657 29.4847 9.94257L29.4255 9.95429L29.419 9.92088C27.8879 9.40736 26.5372 8.49171 25.4991 7.24543L24.8437 6.45874L24.5693 7.35095L26.9652 10.3459V11.5464C26.9652 11.9298 27.0777 12.3015 27.2905 12.6204C27.6499 13.1603 28.2525 13.4827 28.9014 13.4827H29.3159C30.2825 13.4827 31.0686 12.6966 31.0686 11.7299C31.0686 10.9514 30.5457 10.2585 29.7977 10.0446Z" fill="#C50019"/>
<path d="M32.2853 3.76697C30.9834 2.83666 29.4493 2.34483 27.8489 2.34483H25.153L23.8375 1.46786C23.47 1.22224 21.4136 0 17 0C12.5864 0 10.53 1.22224 10.1625 1.46786L8.84703 2.34483H6.15107C4.55072 2.34483 3.01662 2.83665 1.71466 3.76638C0.640724 4.53314 0 5.77883 0 7.09838C0 8.0709 0.326517 8.97248 0.918586 9.68355C1.275 10.1109 1.58217 10.5722 1.84772 11.0547C1.99369 10.448 2.32841 9.90807 2.79797 9.50828C1.83014 9.05455 1.17241 8.07852 1.17241 6.97234C1.17241 6.09362 1.59214 5.25417 2.29559 4.72659C3.33493 3.94693 4.624 3.51724 5.92421 3.51724H9.47838L11.2698 9.34238C11.5237 10.1648 11.5471 11.0424 11.3378 11.8801C11.2053 12.4118 11.1379 12.9587 11.1379 13.5056C11.1379 15.0227 11.6602 16.5111 12.6076 17.6958C13.1721 18.401 13.4828 19.2868 13.4828 20.1901V23.4483H14.6552V20.1901C14.6552 19.0212 14.253 17.8752 13.5232 16.9625C12.7412 15.9853 12.3103 14.7578 12.3103 13.5056C12.3103 13.0537 12.366 12.6017 12.4757 12.1632C12.7365 11.1198 12.7078 10.0247 12.3912 8.99593L12.2013 8.37924L13.3216 8.03397L13.5115 8.65066C13.8908 9.88345 13.9259 11.196 13.6129 12.4475C13.5267 12.7934 13.4828 13.1492 13.4828 13.5056C13.4828 14.4922 13.8222 15.46 14.4383 16.2303C14.5151 16.3259 14.5842 16.4267 14.6552 16.5263V12.8373C14.6552 10.2868 13.9365 7.85107 12.6158 5.74131L12.9604 6.86214L11.8402 7.20683L10.4491 2.686L10.8126 2.44331C10.8906 2.39172 12.7676 1.17241 17 1.17241C21.2324 1.17241 23.1094 2.39172 23.1874 2.44331L23.5514 2.686L21.6093 8.99652C21.2928 10.0247 21.2641 11.1203 21.5249 12.1638C21.634 12.6017 21.6897 13.0537 21.6897 13.5056H20.5172C20.5172 13.1492 20.4733 12.7934 20.3871 12.4475C20.0741 11.1966 20.1092 9.88345 20.4885 8.65124L21.3837 5.7419C20.0635 7.85166 19.3448 10.2873 19.3448 12.8373V16.5263C19.4152 16.4267 19.4849 16.3259 19.5617 16.2303C19.9603 15.7314 20.2499 15.14 20.3982 14.5186L21.5384 14.7912C21.3502 15.5796 20.9833 16.33 20.4768 16.9631C19.747 17.8758 19.3448 19.0218 19.3448 20.1901V23.4483H20.5172V20.1901C20.5172 19.2862 20.8279 18.4004 21.393 17.6947C22.3403 16.5111 22.8621 15.0227 22.8621 13.5056C22.8621 12.9593 22.7947 12.4118 22.6622 11.8789C22.4535 11.0424 22.4769 10.1648 22.7302 9.34062L24.5216 3.51724H28.0758C29.376 3.51724 30.6651 3.94693 31.7044 4.72659C32.4073 5.25417 32.8276 6.09362 32.8276 6.97234C32.8276 8.07793 32.1699 9.05455 31.2015 9.50769C31.671 9.90807 32.0057 10.448 32.1517 11.0547C32.4172 10.5722 32.725 10.1109 33.0814 9.68355C33.6735 8.97248 34 8.0709 34 7.14586C34 5.77883 33.3593 4.53314 32.2853 3.76697Z" fill="#FF8A00"/>
<path d="M31.0009 5.66456C30.1632 5.03615 29.1238 4.6897 28.0757 4.6897H25.388L25.2549 5.12173L26.3992 6.49521C27.2451 7.51052 28.329 8.27552 29.5576 8.73277L30.3408 8.57625C31.1023 8.42383 31.6551 7.7497 31.6551 6.97356C31.6551 6.46063 31.4106 5.97232 31.0009 5.66456Z" fill="#C50019"/>
</svg>
