<svg width="56" height="54" viewBox="0 0 56 54" fill="none" xmlns="http://www.w3.org/2000/svg">
<path d="M1.06484 35.7262C1.40392 39.0275 2.79059 42.1343 5.02257 44.5933C7.25455 47.0524 10.2151 48.735 13.4723 49.3959H42.5752C45.8275 48.734 48.782 47.0499 51.0062 44.59C53.2303 42.1302 54.6071 39.0239 54.9351 35.7262L55.4391 30.9132H0.560932L1.06484 35.7262ZM13.9001 52.1394C13.9015 52.6341 14.0996 53.1081 14.4508 53.457C14.8021 53.8059 15.2778 54.0012 15.7733 53.9999H40.2266C40.722 54.0011 41.1977 53.8058 41.5489 53.4569C41.9002 53.108 42.0982 52.6341 42.0996 52.1394V50.3548H13.9001V52.1394ZM0 25.6445L0.456399 29.9637H55.5435L55.9999 25.6445H0Z" fill="#2781D5"/>
<path d="M33.1306 8.51925C32.82 8.46257 32.505 8.434 32.1893 8.4339L32.7696 1.66549C32.7835 1.54197 32.8447 1.42859 32.9404 1.34899C33.036 1.26939 33.1587 1.22971 33.2829 1.23822C33.3455 1.24263 33.4067 1.25946 33.4627 1.28773C33.5188 1.31599 33.5686 1.35513 33.6093 1.40285C33.65 1.45057 33.6808 1.50592 33.6999 1.56565C33.7189 1.62539 33.7259 1.68832 33.7203 1.75076L33.1306 8.51925ZM33.9578 8.7471C34.1077 8.80055 34.2538 8.86397 34.3952 8.93693L37.4472 0.640323C37.4898 0.521976 37.4837 0.391572 37.4303 0.277683C37.3768 0.163795 37.2803 0.0757109 37.1619 0.0327319C37.104 0.00974583 37.042 -0.00134235 36.9797 0.000129491C36.9173 0.00160133 36.8559 0.015603 36.7991 0.0412983C36.7423 0.0669935 36.6913 0.103855 36.6491 0.149681C36.6069 0.195506 36.5744 0.249356 36.5535 0.308012L33.5015 8.6144C33.6571 8.64541 33.8098 8.68981 33.9578 8.7471ZM35.5071 9.65849L39.4527 4.11468C39.5245 4.01102 39.5528 3.88339 39.5314 3.75916C39.5101 3.63493 39.4409 3.524 39.3386 3.45015C39.2875 3.41358 39.2297 3.38749 39.1685 3.37341C39.1073 3.35933 39.0439 3.35753 38.982 3.36813C38.9201 3.37872 38.8609 3.4015 38.8078 3.43513C38.7548 3.46876 38.709 3.51258 38.6731 3.56403L34.7279 9.11734C35.0066 9.26909 35.2676 9.45053 35.5071 9.65849ZM33.5204 20.8886L32.0084 20.3284C31.8901 20.2854 31.7936 20.1974 31.7401 20.0835C31.6866 19.9696 31.6806 19.8392 31.7232 19.7208C31.768 19.604 31.8564 19.509 31.9699 19.4559C32.0834 19.4028 32.2131 19.3957 32.3317 19.4361L33.9005 20.0152L36.0016 15.1549C36.2286 14.6404 36.3452 14.0842 36.344 13.5221C36.3411 12.6753 36.0792 11.8497 35.5932 11.1557C35.1073 10.4617 34.4205 9.93259 33.625 9.6392C33.0985 9.4423 32.5368 9.35667 31.9755 9.38773C31.4142 9.41878 30.8654 9.56585 30.3639 9.81961C29.8577 10.068 29.4081 10.4179 29.0433 10.8474C28.6785 11.277 28.4063 11.777 28.2437 12.3162L27.721 14.0249L29.4703 14.6706C29.5881 14.7144 29.6839 14.8025 29.7372 14.9161C29.7905 15.0297 29.7971 15.1596 29.7556 15.278C29.7206 15.3685 29.6594 15.4466 29.5799 15.5024C29.5003 15.5582 29.406 15.5891 29.3088 15.5912C29.2536 15.592 29.1988 15.5825 29.1471 15.5632L27.4452 14.9365L25.6763 20.7461L27.0549 21.2493C27.1136 21.2717 27.1674 21.3054 27.2131 21.3486C27.2587 21.3917 27.2954 21.4434 27.321 21.5008C27.3467 21.5581 27.3607 21.6199 27.3623 21.6827C27.364 21.7455 27.3532 21.8079 27.3306 21.8665C27.2973 21.9575 27.2363 22.0357 27.1562 22.0902C27.076 22.1447 26.9807 22.1727 26.8838 22.1702C26.8287 22.1692 26.7741 22.1596 26.7221 22.1417L25.4006 21.6578L24.4783 24.6953H31.8753L33.5204 20.8886ZM41.7826 16.4839C44.901 14.8606 48.5235 15.2782 50.387 17.4616C50.4534 17.5415 50.5446 17.5971 50.6462 17.6195C50.7478 17.6418 50.854 17.6297 50.9479 17.585C51.623 17.2812 52.241 17.3762 52.3835 17.6515C52.5261 17.9268 52.241 18.4868 51.604 18.8477C51.5149 18.9006 51.4454 18.981 51.4059 19.0768C51.3665 19.1726 51.3592 19.2786 51.3853 19.3788C51.5804 20.3091 51.5603 21.2715 51.3263 22.1928C51.0923 23.1141 50.6507 23.9699 50.0352 24.6949H37.8656C36.696 21.8664 38.3976 18.2405 41.7826 16.4839ZM43.7986 18.1832C43.8365 18.3012 43.9165 18.4013 44.0234 18.4643C44.1304 18.5273 44.2567 18.5488 44.3785 18.5249C45.2092 18.2986 46.0849 18.2954 46.9172 18.5156C46.9771 18.5334 47.04 18.5392 47.1022 18.5326C47.1644 18.5259 47.2246 18.5071 47.2794 18.4771C47.3343 18.4471 47.3826 18.4065 47.4216 18.3577C47.4606 18.3089 47.4896 18.2529 47.5068 18.1929C47.5407 18.0721 47.5258 17.9428 47.4653 17.8328C47.4049 17.7228 47.3037 17.6408 47.1835 17.6044C46.1874 17.3334 45.1369 17.3334 44.1408 17.6044C44.0801 17.6196 44.0229 17.6467 43.9727 17.6841C43.9225 17.7215 43.8802 17.7685 43.8484 17.8223C43.8165 17.8762 43.7956 17.9358 43.787 17.9977C43.7784 18.0597 43.7826 18.1227 43.7986 18.1832ZM13.022 11.1675C13.1931 11.2245 13.3358 11.2719 13.4308 11.3098C13.5544 11.2625 13.7446 11.196 13.9823 11.1199C13.9911 10.0124 13.7205 8.92058 13.1954 7.94503C12.6704 6.96949 11.9077 6.14165 10.9779 5.53786C10.9273 5.50109 10.87 5.47462 10.8092 5.45997C10.7484 5.44531 10.6853 5.44276 10.6235 5.45245C10.5617 5.46215 10.5024 5.48391 10.449 5.51648C10.3956 5.54905 10.3492 5.5918 10.3124 5.64228C10.238 5.74424 10.2072 5.87153 10.2268 5.99615C10.2464 6.12076 10.3148 6.2325 10.4169 6.30677C11.2317 6.82642 11.8991 7.54631 12.3553 8.39743C12.8114 9.24854 13.041 10.2024 13.022 11.1675ZM9.10487 13.1329C9.05871 13.1769 9.02017 13.2282 8.99081 13.2847C8.9153 13.3898 8.84854 13.5009 8.79117 13.6169C8.89571 13.56 9.00024 13.4936 9.10487 13.4366C9.33297 13.3133 9.57069 13.19 9.82745 13.0759C10.0858 12.9551 10.3527 12.8535 10.6261 12.7721C10.7281 12.7349 10.8331 12.7063 10.9399 12.6868C11.0149 12.6663 11.0911 12.6504 11.168 12.6392C11.2653 12.618 11.3637 12.6022 11.4627 12.5918C11.5982 12.5728 11.7348 12.5633 11.8715 12.5633C11.9286 12.5633 11.9951 12.5726 12.0521 12.5726C12.1752 12.5793 12.2907 12.6338 12.3742 12.7243C12.4577 12.8148 12.5025 12.9342 12.4991 13.0572C12.5352 13.9129 12.864 14.7304 13.4308 15.3734C14.0028 14.7329 14.3353 13.9146 14.372 13.0572C14.3721 12.9351 14.418 12.8176 14.5008 12.7278C14.5836 12.6381 14.6972 12.5827 14.819 12.5726C15.9821 12.6112 17.1114 12.9726 18.0802 13.6163C18.035 13.5247 17.9842 13.4359 17.9279 13.3506C17.8771 13.2702 17.8199 13.194 17.7568 13.1228C17.6377 12.9706 17.5004 12.8336 17.348 12.7147C17.2735 12.6486 17.194 12.5883 17.1103 12.5343C17.0152 12.4678 16.9201 12.4108 16.8346 12.354C16.6444 12.2493 16.4542 12.1546 16.2831 12.0787C16.026 11.9682 15.7625 11.8731 15.494 11.7939C15.4223 11.7706 15.3493 11.7515 15.2753 11.7369C14.7111 11.875 14.1555 12.0462 13.6115 12.2494C13.5999 12.256 13.5868 12.2593 13.5735 12.2587C13.5281 12.277 13.4797 12.2865 13.4308 12.2867C13.3956 12.2888 13.3604 12.2857 13.3262 12.2774C13.3002 12.2697 13.2748 12.2601 13.2502 12.2489C12.7061 12.0456 12.1505 11.8745 11.5863 11.7363C11.5124 11.751 11.4394 11.77 11.3677 11.7934C11.3201 11.812 11.2726 11.8219 11.2155 11.8408C11.0317 11.8981 10.8508 11.9646 10.6736 12.0399C10.4771 12.1216 10.2865 12.2168 10.1032 12.3249C9.9772 12.3918 9.85644 12.4679 9.74186 12.5527C9.62794 12.6266 9.51988 12.7091 9.41865 12.7995C9.30425 12.901 9.19923 13.0126 9.10487 13.1329ZM7.92588 24.6952H18.9357C20.6677 22.5774 21.6799 19.9643 21.8261 17.2341C22.0352 14.9083 21.598 13.266 20.5425 12.3452C19.5739 11.618 18.3604 11.2947 17.1577 11.4433C17.1671 11.4433 17.1671 11.4527 17.1764 11.462C17.3308 11.5448 17.48 11.6368 17.6233 11.7374C17.6506 11.7498 17.6762 11.7657 17.6993 11.7849C17.842 11.8892 17.9655 11.9937 18.0891 12.0981C18.2795 12.2663 18.4516 12.4541 18.6024 12.6583C18.6798 12.7574 18.7497 12.8621 18.8116 12.9715C18.8396 13.0286 18.8782 13.0948 18.9067 13.1615C18.9441 13.2283 18.9759 13.2982 19.0017 13.3703C19.0398 13.4747 19.0778 13.5791 19.1064 13.6835C19.1449 13.8076 19.1735 13.9346 19.1918 14.0632V14.0912C19.2112 14.2265 19.2208 14.3629 19.2204 14.4996V14.661C19.2164 14.7477 19.1886 14.8317 19.14 14.9037C19.0913 14.9756 19.0238 15.0329 18.9447 15.069C18.8647 15.1046 18.7766 15.1181 18.6896 15.1081C18.6025 15.0981 18.5198 15.0649 18.45 15.012C17.5229 14.2818 16.4394 13.7751 15.284 13.5313C15.124 14.6385 14.5828 15.6555 13.7533 16.4075C13.6626 16.4839 13.5486 16.5274 13.43 16.531C13.3095 16.5281 13.1944 16.4807 13.1069 16.398C12.287 15.6438 11.7502 14.6322 11.5856 13.5313C10.4276 13.7759 9.34121 14.2824 8.41009 15.012C8.34138 15.0671 8.2585 15.1016 8.17099 15.1117C8.08348 15.1218 7.99489 15.107 7.91543 15.069C7.83716 15.0318 7.7703 14.9743 7.72182 14.9026C7.67333 14.8308 7.64498 14.7474 7.63972 14.661C7.62959 14.4865 7.63898 14.3115 7.66772 14.1391C7.66855 14.1005 7.67483 14.0621 7.68639 14.0252C7.69389 13.912 7.7163 13.8003 7.75303 13.693C7.77788 13.5855 7.81288 13.4805 7.85756 13.3795C7.86689 13.3418 7.88612 13.3037 7.89555 13.2751C7.93372 13.1992 7.96209 13.1329 8.00017 13.0665C8.00951 13.0479 8.02873 13.0189 8.03825 13.0001C8.07676 12.9217 8.12465 12.8484 8.18087 12.7816C8.27721 12.634 8.3853 12.4943 8.50408 12.3639C8.62788 12.2309 8.76134 12.1072 8.90336 11.9937C8.98793 11.9189 9.07685 11.8492 9.16964 11.7849C9.23619 11.7374 9.30273 11.6901 9.36928 11.652C9.47391 11.5856 9.57844 11.519 9.68306 11.462C9.6924 11.4527 9.6924 11.4433 9.70173 11.4433C8.50233 11.2985 7.29323 11.6216 6.32662 12.3452C5.27121 13.2564 4.84337 14.9079 5.05253 17.2341C5.19134 19.9629 6.19786 22.5765 7.92588 24.6952Z" fill="#F72B50"/>
</svg>
