<svg width="30" height="34" viewBox="0 0 30 34" fill="none" xmlns="http://www.w3.org/2000/svg">
<path fill-rule="evenodd" clip-rule="evenodd" d="M20.7456 9.88831C19.4448 10.1834 18.2152 10.6298 17.0556 11.1589C17.3726 11.8752 17.6829 12.6292 17.9632 13.3315V13.3326C18.4244 14.487 17.855 15.8122 16.7004 16.2733C15.5453 16.7341 14.2188 16.1672 13.7564 15.0127L12.9639 13.0327C12.4157 11.6642 11.1065 10.7793 9.62922 10.7793H8.73717C8.66565 10.9348 8.5894 11.0894 8.52799 11.2453C8.32597 11.7583 8.17712 12.2944 8.07975 12.7328C7.98238 13.1712 7.9414 13.5552 7.9414 13.5938C7.9414 14.8427 6.91794 15.8671 5.67031 15.8671C4.42268 15.8671 3.39922 14.8427 3.39922 13.5938C3.39922 13.0438 3.46801 12.467 3.59512 11.8651C2.39934 13.661 1.69922 15.8156 1.69922 18.1335C1.69922 21.2324 2.71837 25.171 5.36261 28.3743C8.00691 31.5779 12.2986 34 18.6583 34C20.29 34 21.5575 33.3124 22.4025 32.227C23.0023 31.4565 23.4069 30.5053 23.6908 29.4501C23.5358 29.46 23.3799 29.4667 23.2226 29.4667C19.1734 29.4667 15.8593 26.1511 15.8593 22.1C15.8593 18.049 19.1736 14.7333 23.2226 14.7333C23.4171 14.7333 23.6095 14.7438 23.8003 14.7588C23.2139 12.8755 22.1454 11.2078 20.7456 9.88831ZM6.81781 17.5672C7.08104 17.577 7.31077 17.7708 7.3557 18.0409C7.3557 18.0409 7.77753 20.3522 8.98822 22.6672H10.7613C11.0741 22.6672 11.3279 22.921 11.3279 23.2339C11.3279 23.5469 11.0741 23.8006 10.7613 23.8006H9.65229C10.4246 24.9764 11.4278 26.05 12.7147 26.6937C12.9946 26.8337 13.1081 27.1741 12.9682 27.4541C12.8283 27.734 12.4877 27.8475 12.2078 27.7075C11.6828 27.4449 11.2017 27.1289 10.7613 26.7756V27.7673C10.7613 28.0802 10.5086 28.334 10.1957 28.334C9.88291 28.334 9.62907 28.0802 9.62907 27.7673V25.6932C8.60119 24.5392 7.86589 23.1924 7.34914 21.9612L6.7559 23.4442C6.63961 23.7344 6.31011 23.8755 6.01991 23.7597C5.72987 23.6433 5.58977 23.314 5.70559 23.0237L6.76695 20.3674C6.374 19.1147 6.23792 18.227 6.23792 18.227C6.18663 17.9183 6.39534 17.6265 6.70387 17.5751C6.74244 17.5686 6.78021 17.5658 6.81781 17.5672Z" fill="#F7364E"/>
<path fill-rule="evenodd" clip-rule="evenodd" d="M6.22994 9.06548e-05C6.07409 9.06548e-05 5.97714 0.169417 6.05507 0.304453L8.68146 4.85547C8.83856 5.12767 8.7355 5.45948 8.47118 5.62909C8.2671 5.76004 8.06808 5.90807 7.87352 6.07512C6.68 7.15949 5.90015 8.60806 5.35558 9.9909C4.81004 11.3763 4.53103 12.5866 4.53103 13.5934C4.53103 14.2303 5.0347 14.7334 5.66992 14.7334C6.30513 14.7334 6.80767 14.2302 6.80767 13.5934C6.80767 13.3191 6.86433 12.9741 6.97258 12.4867C7.08083 11.9993 7.24504 11.4128 7.47506 10.8287C7.9316 9.66932 8.63038 8.46271 9.46281 7.71205C10.8047 6.65708 12.4319 6.65816 13.632 7.33353L16.3624 6.55215C16.2613 6.46786 16.1597 6.37864 16.0581 6.28985C15.8216 6.08317 15.7505 5.70318 15.9076 5.43101L18.8671 0.304425C18.945 0.169383 18.847 6.23505e-05 18.6911 6.23505e-05H16.9922C16.6418 6.23505e-05 16.3175 0.186689 16.1422 0.49036L13.5934 4.90747V0.56669C13.5934 0.252756 13.3416 2.26299e-05 13.0278 2.26299e-05H11.8945C11.5807 2.26299e-05 11.3278 0.252756 11.3278 0.56669V4.75912C10.4441 3.42694 9.59602 1.96488 8.75899 0.492513C8.60441 0.220587 8.22624 0 7.91341 0L6.22994 9.06548e-05ZM21.5685 6.24476C18.7162 6.82067 15.9757 7.83631 13.7491 8.47823C13.5446 8.5349 13.3996 8.48236 13.2676 8.39743C12.465 7.84412 11.2562 7.7631 10.1841 8.59222C9.90363 8.85648 9.61549 9.22587 9.34632 9.64589H9.62855C11.5612 9.64589 13.2953 10.818 14.0136 12.6109L14.8072 14.5909H14.8083C15.0427 15.1761 15.6929 15.455 16.2803 15.2206C16.867 14.9858 17.1452 14.3381 16.9112 13.7531V13.752C16.5529 12.8545 16.1812 11.8759 15.8022 11.0946C15.6659 10.8146 15.7811 10.477 16.06 10.3387C17.9306 9.43248 19.6835 8.94226 21.7454 8.4926C22.3659 8.36869 22.7566 7.78132 22.633 7.16337C22.503 6.32975 21.9307 6.22884 21.5685 6.24476ZM1.13333 7.38586C0.500367 7.38586 0 7.88566 0 8.51585C0 9.1461 0.500379 9.64585 1.13333 9.64585H4.27658C4.28596 9.62175 4.93182 8.1104 5.37116 7.38581L1.13333 7.38586ZM23.2331 15.8672C19.7973 15.8672 16.9998 18.6646 16.9998 22.1005C16.9998 25.5364 19.7973 28.3339 23.2331 28.3339C26.669 28.3339 29.4665 25.5364 29.4665 22.1005C29.4665 18.6646 26.669 15.8672 23.2331 15.8672ZM23.2331 18.1338C24.1651 18.1338 24.9331 18.9018 24.9331 19.8338V20.4005H25.4998C26.4318 20.4005 27.1998 21.1685 27.1998 22.1005C27.1998 23.0325 26.4318 23.8005 25.4998 23.8005H24.9331V24.3672C24.9331 25.2992 24.1651 26.0672 23.2331 26.0672C22.3011 26.0672 21.5331 25.2992 21.5331 24.3672V23.8005H20.9665C20.0345 23.8005 19.2665 23.0325 19.2665 22.1005C19.2665 21.1685 20.0345 20.4005 20.9665 20.4005H21.5331V19.8338C21.5331 18.9018 22.3011 18.1338 23.2331 18.1338Z" fill="#FF8A00"/>
</svg>
