<svg width="22" height="17" viewBox="0 0 22 17" fill="none" xmlns="http://www.w3.org/2000/svg">
<path d="M0.439812 0.368652C0.207229 0.368652 0.0105214 0.550999 0.00388359 0.783482C-0.00459913 1.08054 0.000594975 1.37886 0.0216313 1.67766L0.251608 4.9477C0.268333 5.1855 0.466122 5.36987 0.704501 5.36987H6.28543C7.19728 3.6349 8.89195 2.46286 10.8332 2.46286C12.7742 2.46286 14.4689 3.6349 15.3807 5.36987H19.5581C19.8086 5.36987 20.0116 5.57291 20.0116 5.82337C20.0116 6.0738 19.8086 6.27686 19.5581 6.27686H15.7654C15.9743 6.90336 16.0942 7.5771 16.0942 8.28287C16.0942 8.98864 15.9743 9.66239 15.7654 10.2889H19.9544C20.205 10.2889 20.4079 10.4919 20.4079 10.7424C20.4079 10.9928 20.205 11.1959 19.9544 11.1959H15.3807C14.4689 12.9309 12.7742 14.103 10.8332 14.103C7.93212 14.103 5.57198 11.4921 5.57198 8.28289C5.57198 7.57712 5.69184 6.90338 5.90088 6.27688H0.832142C0.568857 6.27688 0.36078 6.50012 0.379249 6.76274L0.597494 9.86672C0.614219 10.1045 0.812008 10.2889 1.05039 10.2889H4.38115C4.63166 10.2889 4.83464 10.4919 4.83464 10.7424C4.83464 10.9928 4.63166 11.1959 4.38115 11.1959H1.17803C0.914745 11.1959 0.706646 11.4191 0.725136 11.6818L1.01245 15.7657C1.02917 16.0035 1.22696 16.1879 1.46534 16.1879L20.2268 16.177C20.3748 16.1769 20.4971 16.0612 20.5054 15.9134L21.1545 4.33464V0.784606C21.1544 0.783222 21.1544 0.781818 21.1543 0.780434C21.1466 0.549175 20.9503 0.368692 20.7189 0.368692H0.439812V0.368652Z" fill="#2781D5"/>
</svg>
