<svg width="34" height="25" viewBox="0 0 34 25" fill="none" xmlns="http://www.w3.org/2000/svg">
<path d="M33.8541 10.2599C32.4593 -0.654788 25.3455 0.00776557 25.3455 0.00776557C25.3455 0.00776557 20.3311 -0.117771 20.3311 4.61078C20.3311 6.13814 20.7356 7.07618 21.2761 7.65155C20.9274 8.27923 20.3834 8.98712 19.6755 9.16148L19.5499 2.36855C19.092 2.17984 18.5781 2.17984 18.1202 2.36855L17.9947 9.09871C17.7782 9.03996 17.567 8.96296 17.3635 8.86856V1.82456C17.3635 1.82456 16.7044 1.35728 15.592 1.7862L15.1736 11.2189C14.5459 11.4351 13.8276 10.5982 13.4405 10.0402C14.0124 9.43696 14.4622 8.42569 14.518 6.75536C14.6819 1.82805 9.4547 1.7862 9.4547 1.7862C9.4547 1.7862 2.07942 0.855138 0.234733 12.1778C-1.12873 20.5818 3.89273 22.6915 3.89273 22.6915C3.89273 22.6915 6.86028 25 9.90803 22.559C10.9611 21.7676 11.6664 20.5989 11.8758 19.2983C12.0852 17.9978 11.7823 16.6667 11.0309 15.5848C11.1283 15.6207 11.2164 15.6778 11.2889 15.7522C11.7736 16.2996 12.0735 17.1923 12.2549 18.099C12.4215 19.0509 12.4962 20.0166 12.478 20.9828C12.4719 21.9698 12.4008 22.9553 12.2653 23.933L13.1162 24.1213C13.3879 23.12 13.5929 22.1019 13.7299 21.0735C13.8831 20.0243 13.9345 18.9628 13.8834 17.9037C13.8492 17.3454 13.7663 16.7912 13.6358 16.2473C13.4987 15.6521 13.263 15.084 12.9383 14.5665C12.8423 14.4217 12.7387 14.2821 12.628 14.1481C13.4194 13.8672 14.2372 13.6674 15.069 13.5518L14.6087 23.5389C15.0399 23.7346 15.5063 23.841 15.9797 23.8518C16.4531 23.8626 16.9238 23.7775 17.3635 23.6017V11.4455C17.5487 11.3418 17.7469 11.2633 17.9528 11.2119L17.7227 23.2913C18.0606 23.4817 18.442 23.5817 18.8298 23.5817C19.2177 23.5817 19.599 23.4817 19.937 23.2913L19.7138 11.2607C20.2659 11.3917 20.8024 11.5811 21.3144 11.8256C20.989 12.3351 20.7531 12.8965 20.617 13.4855C20.4847 14.0291 20.4019 14.5834 20.3694 15.1419C20.3189 16.2009 20.3691 17.2622 20.5194 18.3117C20.6592 19.3399 20.8653 20.3579 21.1366 21.3595L21.984 21.1711C21.8503 20.1921 21.7792 19.2056 21.7712 18.2176C21.756 17.2524 21.8319 16.288 21.9979 15.3372C22.1792 14.4305 22.4756 13.5378 22.9638 12.9903C23.1164 12.8071 23.3044 12.6564 23.5164 12.5473C23.7285 12.4383 23.9604 12.3731 24.1983 12.3557C21.9805 14.1411 21.6631 17.7015 24.2436 19.9158C27.0891 22.3568 30.0078 20.2331 30.0078 20.2331C30.0078 20.2331 34.8968 18.364 33.8541 10.2599ZM12.764 14.6642C13.0888 15.1613 13.3248 15.7112 13.4614 16.2892C13.5904 16.8213 13.6709 17.364 13.702 17.9107C13.755 18.9592 13.7048 20.0104 13.5521 21.0491C13.4248 22.0073 13.2373 22.9565 12.9906 23.8911L12.5024 23.783C12.6229 22.8579 12.6869 21.9262 12.6942 20.9933C12.704 20.0101 12.6211 19.0282 12.4467 18.0606C12.227 16.9482 11.8852 16.1253 11.4354 15.6196C11.3436 15.5208 11.2302 15.4444 11.1041 15.3965L10.4834 15.1489L10.8705 15.6929C11.5893 16.736 11.8777 18.0163 11.6757 19.2669C11.4736 20.5175 10.7967 21.6419 9.78598 22.4056C8.97678 23.0896 7.95466 23.4706 6.89515 23.4831C5.86279 23.4593 4.86057 23.1305 4.01478 22.5381H3.99386H3.96945C3.92063 22.5172 -0.89161 20.3761 0.430012 12.2371C1.97481 2.71726 7.41473 1.97102 9.05368 1.97102C9.18292 1.97023 9.31211 1.97605 9.44075 1.98845C9.48608 1.98845 11.8155 2.02681 13.2347 3.50884C14.0089 4.31437 14.375 5.40584 14.3332 6.75536C14.2077 10.2041 12.3978 10.7377 11.3343 10.7377C11.16 10.7393 10.986 10.7241 10.8147 10.6923L10.3753 10.5947L10.5985 10.9818C11.0413 11.7524 11.1669 12.4324 10.9751 12.9973L10.9228 13.1542L11.0658 13.2344L11.3343 13.3774C11.9148 13.6744 12.4077 14.118 12.764 14.6642ZM11.3203 11.728L11.1773 11.8291C11.1403 11.689 11.0937 11.5515 11.0379 11.4177L11.3203 11.728ZM11.9445 13.5274C11.7817 13.3964 11.6078 13.2797 11.4249 13.1787L11.146 13.0427C11.1738 12.9641 11.1959 12.8837 11.2122 12.802C12.4397 12.2859 12.8442 12.9834 12.8442 12.9834L11.9445 13.5274ZM11.8225 10.8946C12.1243 10.8498 12.4173 10.758 12.6908 10.6226C13.2731 11.8745 13.3882 11.9791 13.3882 11.9791C12.7741 11.766 12.2318 11.3855 11.8225 10.8806V10.8946ZM20.3345 10.361L20.0556 10.2774C20.9483 9.92865 21.6666 8.97317 22.106 8.25134C22.5099 8.42736 22.9452 8.51988 23.3858 8.52333L20.3345 10.361ZM24.0135 9.90424L23.3753 9.63573L24.0274 9.06384C23.9932 9.3427 23.9885 9.62439 24.0135 9.90424ZM22.7128 10.4901C22.4509 10.6347 22.2073 10.8103 21.9874 11.0131C21.7817 10.8841 21.6387 10.8004 21.6387 10.8004L22.3048 10.3401L22.7128 10.4901ZM32.1803 18.1443C31.6115 18.9612 30.84 19.6162 29.9416 20.0448H29.9172L29.8962 20.0622C29.1083 20.5778 28.191 20.8607 27.2495 20.8782C26.1862 20.8671 25.1638 20.4663 24.3761 19.7519C23.8252 19.2974 23.3827 18.7256 23.0811 18.0783C22.7794 17.4309 22.6262 16.7244 22.6326 16.0102C22.6402 15.3352 22.7967 14.6702 23.0909 14.0626C23.385 13.4551 23.8096 12.9198 24.3343 12.4952L24.8434 12.0837L24.1948 12.1465C23.9317 12.1648 23.6751 12.236 23.4402 12.3558C23.2053 12.4756 22.997 12.6417 22.8278 12.8439C22.378 13.3495 22.0397 14.169 21.8201 15.2849C21.6489 16.2492 21.5718 17.2279 21.5899 18.2071C21.5963 19.1399 21.6592 20.0715 21.7782 20.9968L21.29 21.1049C21.0464 20.1696 20.8589 19.2206 20.7286 18.2629C20.5795 17.2238 20.5293 16.173 20.5786 15.1245C20.61 14.5865 20.687 14.0523 20.8088 13.5274C20.943 12.9537 21.1729 12.4067 21.4888 11.9093C21.8425 11.3557 22.3356 10.9047 22.9185 10.6017C23.2741 10.4195 23.6549 10.2914 24.0483 10.2216L24.2297 10.1902L24.2087 10.0089C24.1431 9.50439 24.1932 8.99161 24.3552 8.50939L24.4773 8.16067L24.1285 8.24436C23.9068 8.28741 23.6814 8.30843 23.4555 8.30713C22.3606 8.30713 20.5228 7.82591 20.5228 4.6038C20.5228 0.321607 24.812 0.199558 25.3002 0.199558H25.356C25.356 0.199558 25.4397 0.199558 25.5722 0.199558C26.7055 0.199558 32.4174 0.684268 33.6519 10.2843C34.1889 14.3922 33.1463 16.8262 32.1803 18.1443Z" fill="#FF8A00"/>
<path d="M5.8457 16.9203C6.03504 16.9496 6.21861 17.0085 6.3897 17.0947C6.43769 17.1258 6.48213 17.162 6.52221 17.2028C6.88175 16.5994 7.2999 16.0329 7.7706 15.5115C7.8508 15.4209 7.94147 15.3372 8.02516 15.25L7.57881 15.5394C6.97364 15.9642 6.39487 16.4253 5.8457 16.9203Z" fill="#FF8A00"/>
<path d="M9.0743 8.99405C8.95873 9.01171 8.84115 9.01171 8.72559 8.99405C8.77441 9.06031 8.81974 9.13005 8.86158 9.19979C9.01384 9.45989 9.13109 9.73895 9.2103 10.0297C9.25419 10.1704 9.28913 10.3136 9.31491 10.4586C9.33932 10.1971 9.36722 9.93907 9.38814 9.67753C9.40906 9.416 9.43347 9.08821 9.45091 8.79529C9.34916 8.89919 9.21749 8.96868 9.0743 8.99405Z" fill="#FF8A00"/>
<path d="M8.40527 16.6657C8.46279 16.6332 8.52217 16.6041 8.58312 16.5786C8.68469 16.5373 8.78827 16.5013 8.89347 16.4704C9.00785 16.4435 9.1247 16.4283 9.24218 16.4251C9.29902 16.4199 9.35622 16.4199 9.41305 16.4251C9.37119 16.2959 9.34313 16.1627 9.32936 16.0276C9.30587 15.7469 9.32824 15.4642 9.39562 15.1907L8.40527 16.6657Z" fill="#FF8A00"/>
<path d="M28.515 14.4863C28.5528 14.4479 28.5949 14.414 28.6405 14.3852C28.8042 14.3049 28.9796 14.2508 29.1601 14.2248C28.6323 13.7492 28.0756 13.3067 27.4932 12.8997C27.3642 12.809 27.2282 12.7288 27.0957 12.6451C27.1689 12.7184 27.2457 12.7881 27.3154 12.8648C27.7654 13.3664 28.167 13.9093 28.515 14.4863Z" fill="#FF8A00"/>
<path d="M11.2466 13.5273L10.9711 13.3774L10.6816 13.2204L10.7863 12.9066C10.9606 12.3975 10.8386 11.7733 10.4375 11.0514L10.0993 10.4865C9.90749 10.6156 9.7157 10.7411 9.51694 10.8631C9.51694 11.1735 9.48206 11.4839 9.45765 11.7942C9.52391 11.8814 9.59365 11.9616 9.65642 12.0488C9.98845 12.5083 10.2549 13.0118 10.448 13.5447C10.4625 13.5714 10.4686 13.6018 10.4654 13.6319C10.4645 13.6695 10.4524 13.7059 10.4306 13.7365C10.2759 13.9609 10.1339 14.1938 10.0051 14.434C9.93888 14.5595 9.88657 14.6885 9.82729 14.8141C9.76801 14.9396 9.72268 15.0721 9.68781 15.2046C9.60556 15.4661 9.56899 15.7398 9.5797 16.0136C9.58622 16.18 9.62162 16.3441 9.68432 16.4983C9.78792 16.5386 9.88444 16.5951 9.97026 16.6657C10.2877 16.9752 10.4999 17.3765 10.577 17.813C10.7491 18.6015 10.8078 19.4105 10.7514 20.2156C10.7194 19.4266 10.5677 18.6471 10.3015 17.9037C10.1845 17.5633 9.97133 17.2641 9.68781 17.0423C9.54896 16.9705 9.39407 16.9354 9.23783 16.9403C9.08159 16.9452 8.92919 16.9899 8.7951 17.0702C8.09589 17.3436 7.52304 17.8667 7.18753 18.5383C6.82988 19.2428 6.60751 20.0081 6.53195 20.7945C6.51704 19.9854 6.65548 19.1808 6.93995 18.4232C7.08918 18.0413 7.29488 17.684 7.5502 17.3632C7.68325 17.1938 7.83668 17.0416 8.00701 16.9098L9.43673 14.6397C9.22312 14.7236 9.01959 14.8312 8.82997 14.9605C8.51656 15.1759 8.22669 15.4237 7.96516 15.6998C7.47429 16.2105 7.03402 16.7676 6.65052 17.3632C6.68859 17.428 6.71901 17.497 6.74118 17.5689C6.78947 17.7496 6.80015 17.9383 6.77256 18.1233C6.72108 18.4649 6.61759 18.7965 6.4657 19.1067C6.18558 19.709 5.83437 20.2757 5.41956 20.7945C5.74109 20.2235 6.01629 19.6276 6.24252 19.0126C6.35175 18.7172 6.42208 18.4089 6.45175 18.0954C6.48032 17.9635 6.47236 17.8262 6.42873 17.6984C6.38511 17.5706 6.30747 17.4571 6.20416 17.3701C6.08459 17.298 5.95179 17.2506 5.8136 17.2306C5.73971 17.2109 5.66342 17.2015 5.58694 17.2027C5.51038 17.1958 5.43335 17.1958 5.35679 17.2027C5.04139 17.2092 4.72965 17.2718 4.43619 17.3876C3.825 17.6236 3.26237 17.9699 2.77632 18.4093C3.21485 17.9041 3.74792 17.4895 4.34552 17.1888C4.70231 17.009 5.09355 16.9079 5.49279 16.8924C6.09661 16.3166 6.73727 15.7808 7.41071 15.2883C7.57809 15.1697 7.74896 15.0535 7.92332 14.9396C7.64546 14.8853 7.36244 14.8619 7.07943 14.8699C6.74097 14.8696 6.4112 14.977 6.13791 15.1767C6.11273 15.2862 6.07285 15.3918 6.01935 15.4906C5.90807 15.6786 5.76398 15.8451 5.59392 15.9822C5.27553 16.2328 4.92333 16.4371 4.54778 16.589C3.82736 16.912 3.04222 17.0648 2.25325 17.0354C3.00874 16.9266 3.73863 16.6833 4.40829 16.317C4.73534 16.1437 5.03886 15.9292 5.31146 15.6789C5.56951 15.4348 5.77176 15.1314 5.69853 14.8908C5.65764 14.7434 5.56942 14.6135 5.44746 14.5211C5.31646 14.3937 5.17535 14.2771 5.02551 14.1724C4.70887 13.9651 4.36658 13.7998 4.00727 13.6807C3.2695 13.4467 2.5036 13.313 1.73018 13.2832C2.50874 13.2805 3.28525 13.3635 4.04563 13.5308C4.43611 13.6093 4.81635 13.7321 5.17895 13.8969C5.34199 13.9751 5.49727 14.0685 5.64274 14.1759C6.06817 14.2247 6.49359 14.284 6.91902 14.3572C7.40696 14.4361 7.88921 14.5467 8.3627 14.6885C8.40803 14.6606 8.45685 14.6292 8.50567 14.6048C8.69979 14.4994 8.90143 14.4085 9.10894 14.3328C9.30317 14.2559 9.50757 14.2078 9.7157 14.1899L10.0644 13.6459C9.94463 13.5168 9.81773 13.3946 9.68432 13.2797C9.51627 13.144 9.33385 13.027 9.14033 12.931C8.95267 12.832 8.74799 12.7692 8.53705 12.7462C8.42068 12.732 8.30272 12.7379 8.18834 12.7636C8.13611 12.8096 8.0814 12.8527 8.02444 12.8927C7.76981 13.0651 7.48265 13.1838 7.18056 13.2414C6.61914 13.3302 6.04723 13.3302 5.48582 13.2414C4.93614 13.1662 4.39293 13.0496 3.86081 12.8927C3.3292 12.7499 2.81384 12.5524 2.32299 12.3033C2.82893 12.5092 3.35479 12.6623 3.8922 12.7601C4.42432 12.8681 4.96422 12.9334 5.50674 12.9554C6.0367 12.9857 6.56818 12.9351 7.08292 12.8055C7.25965 12.7821 7.42989 12.7235 7.58356 12.6332C7.73724 12.5428 7.87121 12.4225 7.97754 12.2795C8.08388 12.1364 8.16041 11.9734 8.20261 11.8002C8.24481 11.627 8.25181 11.4471 8.22321 11.2711C8.22321 11.1456 8.20229 11.0201 8.18137 10.8945L8.0907 10.5249C7.91508 10.0315 7.63154 9.58358 7.26076 9.21373C6.47187 8.46452 5.51543 7.91457 4.47106 7.60965C5.55298 7.84162 6.56857 8.31485 7.44209 8.99404C7.89173 9.3557 8.25007 9.81797 8.48823 10.3436L8.63121 10.762C8.63286 10.7864 8.63286 10.8109 8.63121 10.8352C8.823 11.0305 9.00782 11.2293 9.17868 11.4385C9.17868 11.2711 9.17868 11.0898 9.14381 10.9364C9.11326 10.6523 9.05961 10.3713 8.9834 10.096C8.91199 9.83287 8.80772 9.5798 8.67305 9.34276C8.58869 9.19127 8.48299 9.05269 8.35921 8.93127C7.98961 8.79776 7.63817 8.61852 7.31307 8.39774C6.66437 7.96539 6.05523 7.47645 5.49279 6.93664C6.15186 7.34812 6.79 7.78401 7.46999 8.12924C7.79655 8.30416 8.14158 8.44217 8.49869 8.54072C8.6519 8.5828 8.81202 8.59347 8.96946 8.5721C9.02878 8.56313 9.08429 8.53733 9.12941 8.49778C9.17453 8.45823 9.20736 8.40657 9.22402 8.34893C9.31974 8.01703 9.34 7.66793 9.2833 7.3272C9.25698 6.94843 9.19747 6.5727 9.10545 6.20434C8.91811 5.46414 8.47614 4.81353 7.85706 4.36662C8.21486 4.53086 8.52902 4.77693 8.77418 5.08497C9.02828 5.39196 9.23299 5.73667 9.38094 6.1067C9.53109 6.47504 9.64099 6.85852 9.70873 7.25048C9.75047 7.44892 9.77266 7.65098 9.77498 7.85375C9.7848 8.07824 9.74922 8.3024 9.67037 8.51282C9.66128 8.53328 9.65079 8.55308 9.63898 8.5721C9.64063 8.59416 9.64063 8.6163 9.63898 8.63836C9.63898 8.98707 9.61458 9.33578 9.59714 9.68449C9.59714 9.89372 9.56924 10.1064 9.55529 10.3157C9.63899 10.2355 9.72616 10.1518 9.80637 10.0646C10 9.85537 10.1643 9.62074 10.2946 9.36717C10.4223 9.11397 10.5038 8.84 10.5352 8.55815C10.5632 8.31368 10.5431 8.06607 10.4759 7.82934C10.4217 7.74167 10.3728 7.65084 10.3294 7.55735C10.1814 7.22289 10.0748 6.87157 10.0121 6.51121C9.87725 5.80482 9.82691 5.0849 9.86216 4.36662C9.94084 5.07243 10.0702 5.77166 10.2492 6.4589C10.3399 6.79241 10.4637 7.11601 10.6189 7.42484C10.7413 7.72282 10.9631 7.96924 11.2466 8.12226C11.3851 8.17463 11.5362 8.18435 11.6804 8.15017C11.8246 8.11599 11.9552 8.03948 12.0556 7.93047C12.1238 7.86851 12.1879 7.80211 12.2474 7.7317C12.2454 7.72251 12.2454 7.713 12.2474 7.70381C12.3977 7.51952 12.5297 7.32097 12.6414 7.11099C12.9635 6.47741 13.2093 5.80786 13.3737 5.11636C13.2642 5.82668 13.0759 6.52259 12.8123 7.1912C12.6983 7.47254 12.5495 7.73847 12.3694 7.98278C12.2814 8.27581 12.142 8.5509 11.9579 8.79528C11.7303 9.10521 11.4696 9.38935 11.1803 9.64265C10.8919 9.9016 10.588 10.1427 10.2702 10.3645L10.8386 10.497C10.9961 10.5264 11.1561 10.5404 11.3163 10.5388C12.3101 10.5388 13.9979 10.0472 14.106 6.76228C14.1478 5.47204 13.7991 4.4259 13.0599 3.66222C11.6999 2.23947 9.44719 2.20112 9.42627 2.20112H9.40186C9.28571 2.19484 9.1693 2.19484 9.05315 2.20112C7.46302 2.20112 2.15212 2.92993 0.635219 12.2754C-0.672454 20.2086 3.85384 22.2451 4.04563 22.3288L4.09445 22.3497L4.1363 22.3811C4.94467 22.9523 5.90509 23.2692 6.89461 23.2913C7.91114 23.2753 8.89028 22.9053 9.66339 22.2451C10.6758 21.4682 11.3401 20.3225 11.5116 19.0579C11.6626 17.9084 11.375 16.7443 10.706 15.7974L9.93888 14.706L11.1768 15.2046C11.3328 15.2627 11.4727 15.3571 11.5848 15.4801C12.0556 16.0101 12.4113 16.875 12.6309 18.0083C12.803 18.9866 12.8812 19.9791 12.8646 20.9723C12.8582 21.8547 12.8023 22.736 12.6972 23.6121L12.8227 23.64C13.0447 22.7719 13.2159 21.8917 13.3353 21.0037C13.4812 19.9796 13.5302 18.944 13.4818 17.9106C13.4504 17.3771 13.3723 16.8473 13.2482 16.3275C13.1184 15.7749 12.8968 15.2479 12.5926 14.7687C12.2616 14.2432 11.7971 13.8148 11.2466 13.5273Z" fill="#F7364E"/>
<path d="M8.43652 12.4812H8.55857C8.80044 12.4993 9.03688 12.562 9.256 12.666C9.47367 12.766 9.67952 12.89 9.86973 13.0356C9.74223 12.7476 9.59423 12.4691 9.42687 12.2022C9.20964 11.8524 8.96845 11.518 8.70503 11.2014C8.75475 11.5137 8.72722 11.8333 8.62483 12.1325C8.57762 12.2565 8.51431 12.3737 8.43652 12.4812Z" fill="#FF8A00"/>
<path d="M11.791 8.64534C11.8667 8.55043 11.9355 8.45021 11.9968 8.34545C11.921 8.39694 11.8374 8.4358 11.7492 8.46052C11.5409 8.52416 11.3173 8.51556 11.1145 8.43611C11.0169 8.39193 10.9245 8.33695 10.8391 8.27222C10.8485 8.38826 10.8485 8.50488 10.8391 8.62093C10.8078 8.94015 10.7216 9.25158 10.5845 9.54153C10.515 9.68945 10.4322 9.83068 10.3369 9.96347C10.574 9.79958 10.8042 9.61476 11.0343 9.44389C11.3137 9.20477 11.5673 8.93713 11.791 8.64534Z" fill="#FF8A00"/>
<path d="M6.12454 14.7793C6.1279 14.8152 6.1279 14.8514 6.12454 14.8874C6.19933 14.8349 6.2801 14.7916 6.36516 14.7583C6.53495 14.6895 6.71323 14.6438 6.8952 14.6224H6.85684C6.53951 14.5491 6.2187 14.4829 5.90137 14.4236C6.00033 14.5248 6.07643 14.6461 6.12454 14.7793Z" fill="#FF8A00"/>
<path d="M28.8916 12.15C28.9322 12.0216 28.9987 11.903 29.0869 11.8013C28.78 11.8606 28.4767 11.9233 28.1768 11.9931C28.3399 12.0202 28.4992 12.067 28.651 12.1325C28.7308 12.1649 28.8068 12.2058 28.8777 12.2546C28.8784 12.2193 28.8831 12.1842 28.8916 12.15Z" fill="#FF8A00"/>
<path d="M25.8758 13.7331C25.9933 13.7357 26.1102 13.7509 26.2245 13.7784C26.3267 13.8065 26.4269 13.8415 26.5244 13.883C26.5767 13.904 26.6255 13.9319 26.6779 13.9563L25.7294 12.5789C25.7904 12.8392 25.8116 13.1073 25.7921 13.3739C25.7775 13.5006 25.7506 13.6255 25.7119 13.747C25.7662 13.7388 25.8209 13.7341 25.8758 13.7331Z" fill="#FF8A00"/>
<path d="M25.861 10.0996C26.08 9.99583 26.3166 9.93432 26.5584 9.91823H26.663C26.5921 9.81629 26.5335 9.70625 26.4886 9.59044C26.392 9.30575 26.3645 9.00214 26.4084 8.70471C26.1548 9.00474 25.9218 9.32164 25.711 9.65321C25.5527 9.90607 25.4117 10.1694 25.2891 10.4413C25.4665 10.3067 25.6583 10.1921 25.861 10.0996Z" fill="#FF8A00"/>
<path d="M29.4747 1.79317C28.362 0.917957 26.9948 0.428382 25.5795 0.398315C25.461 0.398315 25.3912 0.398315 25.3808 0.398315H25.3075C24.4482 0.409701 23.6014 0.605938 22.8247 0.973691C21.4298 1.67112 20.7324 2.88464 20.7324 4.60379C20.7324 7.5016 22.2214 8.09092 23.4698 8.09092C23.6803 8.09252 23.8905 8.07384 24.0975 8.03513L24.7949 7.87472L24.5508 8.55122C24.3994 9.00566 24.3529 9.48852 24.4148 9.96351L24.4532 10.3122L24.1045 10.3785C23.7276 10.4401 23.3621 10.5576 23.02 10.7272C22.4688 11.0149 22.0024 11.4416 21.667 11.9651C21.3599 12.4441 21.1381 12.9727 21.0114 13.5274C20.8868 14.0483 20.8086 14.5793 20.7778 15.114C20.7183 16.1608 20.7627 17.2109 20.9103 18.2489C21.0306 19.1365 21.2006 20.0166 21.4194 20.8852L21.5484 20.8573C21.442 19.9801 21.3849 19.0976 21.3775 18.2141C21.3618 17.228 21.4389 16.2426 21.6077 15.2709C21.8378 14.1167 22.1935 13.2658 22.6538 12.7323C22.8395 12.5123 23.0671 12.3315 23.3233 12.2004C23.5795 12.0693 23.8593 11.9905 24.1463 11.9686L25.1541 11.8745V11.8431C25.0279 11.6036 24.8894 11.3708 24.7391 11.1456C24.7386 11.134 24.7386 11.1224 24.7391 11.1108C24.7271 11.0734 24.7271 11.0331 24.7391 10.9957C24.9208 10.4796 25.1757 9.99224 25.4958 9.54854C25.5551 9.46485 25.6214 9.38813 25.6841 9.30444C25.6632 9.00803 25.6458 8.70814 25.6283 8.40825C25.0503 8.06276 24.5063 7.66346 24.0033 7.21565C23.726 6.96895 23.4747 6.69434 23.2536 6.39618C23.0755 6.16034 22.9409 5.89465 22.8561 5.61157C22.6757 5.36429 22.528 5.09471 22.4167 4.80953C22.1637 4.16296 21.9824 3.49057 21.8762 2.80443C22.0329 3.47106 22.2669 4.11708 22.5736 4.72933C22.6827 4.93301 22.8111 5.1257 22.9572 5.3047C22.9584 5.3128 22.9584 5.32102 22.9572 5.32911C23.0152 5.3975 23.0769 5.46269 23.142 5.52439C23.2389 5.62856 23.3646 5.70145 23.5032 5.73375C23.6417 5.76605 23.7867 5.7563 23.9197 5.70572C24.1893 5.56356 24.4021 5.33347 24.5229 5.05363C24.671 4.75494 24.7879 4.44176 24.8716 4.11908C25.0453 3.45595 25.1712 2.7812 25.2483 2.10003C25.2853 2.79474 25.2385 3.49139 25.1088 4.17488C25.0484 4.52624 24.9465 4.86921 24.8054 5.1966C24.7625 5.28745 24.7148 5.37592 24.6624 5.46163C24.5992 5.68835 24.5791 5.92491 24.6031 6.15905C24.6338 6.43127 24.713 6.6958 24.8368 6.94017C24.9637 7.18621 25.1219 7.41478 25.3075 7.62016C25.3808 7.70036 25.461 7.77708 25.5412 7.8538C25.5412 7.65503 25.5133 7.45626 25.5028 7.25401C25.4842 6.91227 25.4703 6.57053 25.461 6.22879V6.17649C25.448 6.15632 25.4364 6.13536 25.4261 6.11372C25.3493 5.90883 25.3137 5.69077 25.3215 5.47209C25.3456 5.27257 25.3864 5.07544 25.4435 4.88276C25.5029 4.49955 25.6046 4.12412 25.7469 3.76339C26.0138 3.03888 26.5409 2.43969 27.2255 2.0826C26.6302 2.51715 26.2058 3.14634 26.0259 3.86103C25.9333 4.21081 25.8703 4.56775 25.8376 4.92809C25.7849 5.25723 25.804 5.59385 25.8934 5.91495C25.9107 5.96899 25.9427 6.01715 25.9858 6.05409C26.0289 6.09103 26.0814 6.11529 26.1375 6.12418C26.2878 6.14509 26.4407 6.1356 26.5873 6.09628C26.9322 6.00087 27.2656 5.86754 27.5811 5.69875C28.2402 5.36747 28.8539 4.94553 29.4921 4.55149C28.9545 5.07473 28.371 5.54856 27.7485 5.96726C27.438 6.18464 27.1004 6.36049 26.7442 6.49033C26.6249 6.61306 26.5228 6.7515 26.4409 6.90181C26.3029 7.13766 26.1973 7.39101 26.127 7.65503C26.0545 7.92139 26.0032 8.19307 25.9736 8.46753C25.9736 8.62445 25.9457 8.78137 25.9387 8.93829C26.1026 8.74301 26.2874 8.55471 26.4548 8.37338C26.4548 8.34897 26.4548 8.32107 26.4548 8.29317L26.5943 7.88867C26.8259 7.38058 27.1735 6.93389 27.609 6.58448C28.4511 5.91657 29.4334 5.44804 30.4824 5.21404C29.4707 5.51008 28.5442 6.04327 27.7799 6.7693C27.4232 7.12753 27.1515 7.56131 26.9848 8.03861L26.8942 8.38733C26.8942 8.50589 26.8698 8.62794 26.8558 8.73604C26.8258 8.96415 26.851 9.19613 26.929 9.41254C27.0223 9.61886 27.1644 9.79938 27.343 9.9385C27.5216 10.0776 27.7314 10.1712 27.9543 10.2111C28.4496 10.3361 28.961 10.3855 29.4712 10.3576C29.9961 10.3365 30.5185 10.2736 31.0334 10.1692C31.5528 10.0768 32.0611 9.93075 32.5503 9.73336C32.0757 9.97361 31.578 10.1652 31.0648 10.3052C30.5506 10.4544 30.0261 10.5651 29.4956 10.6365C28.9517 10.7254 28.397 10.7254 27.8531 10.6365C27.5623 10.5875 27.2847 10.4795 27.0371 10.3192C26.9807 10.2801 26.9271 10.2369 26.8767 10.1902C26.768 10.1744 26.6576 10.1744 26.549 10.1902C26.3465 10.2148 26.1504 10.2762 25.9701 10.3715C25.783 10.4674 25.6075 10.5844 25.447 10.7202C25.3226 10.8279 25.206 10.9445 25.0983 11.0689L25.4435 11.5746C25.6442 11.5946 25.8412 11.6415 26.0294 11.714C26.2291 11.7896 26.4236 11.8781 26.6117 11.9791L26.7512 12.0558C27.2092 11.9214 27.675 11.8154 28.1461 11.7385C28.554 11.6722 28.962 11.6129 29.3735 11.5676C29.5156 11.4634 29.666 11.3713 29.8234 11.2921C30.1761 11.1372 30.5443 11.0203 30.9218 10.9434C31.6584 10.783 32.4102 10.7035 33.164 10.7063C32.4182 10.7405 31.6804 10.8754 30.9706 11.1073C30.6192 11.2208 30.2849 11.3815 29.9768 11.585C29.8304 11.6806 29.6937 11.7904 29.5688 11.9128C29.453 11.9999 29.3685 12.1223 29.3282 12.2615C29.2584 12.4917 29.4537 12.7811 29.7013 13.0147C29.9641 13.2581 30.2571 13.4667 30.5731 13.6355C31.2239 13.9896 31.9323 14.2257 32.6654 14.3329C31.9007 14.3628 31.1394 14.216 30.4406 13.904C30.0766 13.7593 29.7359 13.5619 29.4293 13.3181C29.2621 13.1879 29.1213 13.0269 29.0143 12.8439C28.959 12.7475 28.9201 12.6426 28.8993 12.5335C28.6359 12.3449 28.32 12.2437 27.9961 12.2441C27.726 12.2386 27.4561 12.2608 27.1906 12.3103C27.358 12.415 27.5184 12.5231 27.6788 12.6381C28.3294 13.1129 28.948 13.6301 29.5304 14.1864C29.9161 14.2024 30.294 14.2998 30.6394 14.4724C31.2165 14.7648 31.7307 15.1676 32.1528 15.658C31.6855 15.2329 31.1442 14.8972 30.5557 14.6676C30.2716 14.5578 29.9709 14.4977 29.6664 14.4898C29.5933 14.4846 29.5199 14.4846 29.4468 14.4898C29.3726 14.4883 29.2985 14.4977 29.2271 14.5177C29.0936 14.5351 28.9653 14.5802 28.8505 14.6502C28.7517 14.7342 28.6774 14.8434 28.6357 14.9662C28.5939 15.089 28.5862 15.2208 28.6133 15.3476C28.6427 15.6514 28.7107 15.9502 28.8156 16.2369C29.032 16.8317 29.2967 17.4079 29.6072 17.9595C29.194 17.4609 28.8427 16.9141 28.561 16.331C28.4161 16.0299 28.3162 15.7092 28.2646 15.379C28.2371 15.1998 28.2478 15.0168 28.296 14.842C28.3185 14.7731 28.3477 14.7065 28.3832 14.6432C28.0155 14.0637 27.5902 13.5228 27.1139 13.0287C26.8603 12.7687 26.5811 12.535 26.2804 12.3313C26.1013 12.2098 25.9095 12.1081 25.7086 12.0279L27.072 14.1934C27.2426 14.322 27.3982 14.4694 27.5358 14.6328C27.7874 14.9492 27.9896 15.3019 28.1356 15.6789C28.4082 16.4125 28.5395 17.191 28.5227 17.9734C28.4487 17.2144 28.2322 16.4762 27.8845 15.7975C27.5576 15.1566 27.0047 14.6596 26.3328 14.4026C26.2045 14.3256 26.0587 14.2827 25.9092 14.2778C25.7597 14.2729 25.6114 14.3063 25.4784 14.3747C25.2038 14.5859 24.9976 14.8734 24.8856 15.2012C24.6265 15.9198 24.4772 16.6733 24.4427 17.4364C24.3892 16.6571 24.4455 15.8741 24.6101 15.1105C24.6836 14.6874 24.8886 14.2981 25.1959 13.9981C25.2793 13.9258 25.3749 13.8691 25.4784 13.8307C25.5352 13.6847 25.5681 13.5304 25.576 13.3739C25.5835 13.1094 25.547 12.8454 25.4679 12.5928C25.4102 12.4011 25.3367 12.2145 25.2483 12.0349L24.4497 12.6556C23.9468 13.061 23.5397 13.5726 23.2575 14.1537C22.9754 14.7349 22.8252 15.3712 22.8177 16.0172C22.8128 16.7039 22.9619 17.383 23.254 18.0046C23.546 18.6261 23.9737 19.1744 24.5055 19.6089C25.2575 20.2919 26.234 20.6753 27.2499 20.6864C28.1498 20.6689 29.0269 20.3995 29.7815 19.9088L29.8234 19.8774H29.8722C30.057 19.8042 34.4508 17.9804 33.4639 10.3087C32.9478 6.29505 31.6053 3.41468 29.4747 1.79317Z" fill="#F7364E"/>
<path d="M25.7921 7.9689C25.82 7.83639 25.8514 7.70737 25.8898 7.57486C25.9701 7.2933 26.0874 7.02362 26.2385 6.77282C26.2771 6.70908 26.319 6.64739 26.364 6.588C26.2553 6.6035 26.1449 6.6035 26.0362 6.588C25.9054 6.56322 25.7844 6.50151 25.6875 6.41016C25.6875 6.68913 25.7224 6.9681 25.7468 7.24707C25.7712 7.52604 25.7921 7.7248 25.7921 7.9689Z" fill="#FF8A00"/>
<path d="M24.3412 6.18347C24.3412 6.07886 24.3412 5.97424 24.3412 5.86963C24.2616 5.93086 24.175 5.98236 24.0831 6.02306C23.9462 6.07743 23.7982 6.09851 23.6515 6.08457C23.5048 6.07063 23.3635 6.02206 23.2393 5.94286C23.298 6.03821 23.362 6.13018 23.4311 6.21834C23.6515 6.49581 23.9005 6.74943 24.1738 6.97505C24.3795 7.14592 24.5957 7.30633 24.8154 7.45976C24.7303 7.33844 24.6557 7.21012 24.5923 7.07618C24.4582 6.79515 24.3732 6.4932 24.3412 6.18347Z" fill="#FF8A00"/>
</svg>
