<svg width="34" height="34" viewBox="0 0 34 34" fill="none" xmlns="http://www.w3.org/2000/svg">
<path d="M21.8573 21.0411V10.9286H19.4287V21.25H20.643C21.0567 21.2502 21.4674 21.1795 21.8573 21.0411Z" fill="#C50019"/>
<path d="M13.9639 26.8661C13.9643 27.2282 14.1083 27.5755 14.3644 27.8316C14.6205 28.0877 14.9678 28.2317 15.3299 28.2321H15.7853V25.5328L15.6868 25.5H15.3299C14.9678 25.5004 14.6205 25.6445 14.3644 25.9006C14.1083 26.1567 13.9643 26.5039 13.9639 26.8661Z" fill="#FF8A00"/>
<path d="M24.0462 3.44346e-06C22.7834 -0.000867462 21.5468 0.36055 20.4833 1.04137L17 6.84674V8.19643L19.0238 9.71428H22.9084L34 3.29282V2.84558L28.9865 0.917313C27.4104 0.309799 25.7355 -0.00119376 24.0462 3.44346e-06Z" fill="#C50019"/>
<path d="M15.7856 33.0892H14.5713V33.9999H15.7856V33.0892Z" fill="#FF8A00"/>
<path d="M10.07 12.75H8.62814C7.6328 12.751 6.6596 12.4563 5.83197 11.9034C5.44104 11.6427 5.14433 11.2633 4.98569 10.821C4.82706 10.3788 4.81492 9.89723 4.95107 9.44756C5.08722 8.99788 5.36444 8.60395 5.74174 8.32397C6.11905 8.044 6.57642 7.89284 7.04625 7.89285H7.74552C8.64227 7.89041 9.53061 8.06585 10.3591 8.40902C11.1876 8.75219 11.9398 9.25628 12.5722 9.89212L15.2197 12.5395L17.1997 11.6596L17.9976 10.4625L16.0286 8.9857C15.9532 8.92915 15.892 8.85582 15.8498 8.77152C15.8077 8.68721 15.7857 8.59425 15.7857 8.5V6.67857C15.7857 6.56854 15.8156 6.46058 15.8722 6.36621L19.2173 0.791204L18.0305 0H9.71428C7.13879 0.00291441 4.66962 1.02732 2.84847 2.84847C1.02732 4.66962 0.00291441 7.13879 0 9.71428V20.6428C0.000545963 21.1257 0.192621 21.5887 0.534087 21.9302C0.875553 22.2717 1.33852 22.4637 1.82143 22.4643C3.03911 22.463 4.23898 22.1718 5.3217 21.6146C6.40442 21.0574 7.33884 20.2503 8.0476 19.2602L11.6028 14.2829L10.07 12.75Z" fill="#F7364E"/>
<path d="M15.7856 20.4937V16.8349C15.7873 16.1967 15.6625 15.5646 15.4183 14.9751C15.1741 14.3856 14.8154 13.8503 14.3629 13.4003L11.7134 10.7508C11.1935 10.2281 10.5751 9.81365 9.89401 9.53153C9.2129 9.24941 8.4826 9.10518 7.74538 9.1072H7.04611C6.83689 9.10719 6.63322 9.1745 6.46521 9.29918C6.29719 9.42385 6.17375 9.59927 6.11312 9.79951C6.05249 9.99975 6.05789 10.2142 6.12853 10.4111C6.19917 10.6081 6.33129 10.777 6.50537 10.8931C7.13365 11.3128 7.87242 11.5365 8.628 11.5358H10.3213C10.4823 11.5358 10.6368 11.5997 10.7506 11.7136L13.3265 14.2895C13.7224 14.6832 14.0363 15.1516 14.2499 15.6674C14.4636 16.1833 14.5728 16.7364 14.5713 17.2947V20.118C14.9901 20.1923 15.398 20.3185 15.7856 20.4937Z" fill="#FF8A00"/>
<path d="M31.4621 6.16541L24.7357 10.0596C25.2367 10.829 25.5024 11.7277 25.5003 12.6458V17.6071C25.4989 18.8949 24.9867 20.1295 24.0761 21.0401C23.1655 21.9506 21.9309 22.4628 20.6432 22.4643H19.5274L17.7995 23.0403C17.7064 23.0713 17.6071 23.0793 17.5102 23.0636C17.4133 23.0479 17.3217 23.0089 17.2432 22.95L16.0291 22.0394C15.3417 21.5233 14.5044 21.2461 13.6448 21.25H13.5807C13.0729 21.25 12.57 21.35 12.1008 21.5444C11.6316 21.7387 11.2054 22.0236 10.8463 22.3827C10.4872 22.7418 10.2024 23.1681 10.0081 23.6373C9.81378 24.1065 9.71381 24.6094 9.71387 25.1172L9.71416 27.9285C9.71546 28.9748 10.1317 29.9779 10.8716 30.7178C11.6115 31.4576 12.6147 31.8738 13.661 31.875H17.911C18.5299 31.8758 19.1303 32.0864 19.6142 32.4723C20.098 32.8582 20.4368 33.3968 20.5752 34H23.6434C23.4932 32.7458 22.8888 31.59 21.9445 30.751C21.0002 29.9121 19.7813 29.448 18.5182 29.4464H15.3307C14.6463 29.4464 13.99 29.1746 13.5061 28.6907C13.0222 28.2067 12.7503 27.5504 12.7503 26.8661C12.7503 26.1817 13.0222 25.5254 13.5061 25.0415C13.99 24.5576 14.6463 24.2857 15.3307 24.2857H15.786C15.8513 24.2857 15.9161 24.2962 15.9781 24.3169L17.7995 24.924C17.8889 24.9538 17.9701 25.0041 18.0368 25.0707C18.5567 25.5934 19.1751 26.0078 19.8562 26.29C20.5373 26.5721 21.2676 26.7163 22.0048 26.7143H25.5003C27.7539 26.7117 29.9144 25.8154 31.5079 24.2219C33.1014 22.6284 33.9978 20.4678 34.0003 18.2143V11.7805C34.0028 10.7176 33.7776 9.66642 33.3397 8.69785C32.9019 7.72928 32.2617 6.86575 31.4621 6.16541Z" fill="#FF8A00"/>
<path d="M21.8573 27.925C21.0241 27.909 20.201 27.7403 19.4287 27.4271V28.2982C20.2902 28.4219 21.1169 28.7219 21.8573 29.1795V27.925Z" fill="#C50019"/>
</svg>
