<svg width="34" height="34" viewBox="0 0 34 34" fill="none" xmlns="http://www.w3.org/2000/svg">
<g clip-path="url(#clip0_687_63)">
<path d="M31.0841 23.375H29.2187V25.5C29.2187 25.7818 29.1068 26.052 28.9075 26.2513C28.7082 26.4506 28.438 26.5625 28.1562 26.5625V29.75C28.1562 30.1727 27.9883 30.5781 27.6894 30.877C27.3905 31.1758 26.9851 31.3438 26.5625 31.3438H22.3125V33.4688H4.78121V29.9632C4.78121 26.4297 4.02949 22.9414 2.66218 19.6808C1.78481 17.581 1.43953 15.297 1.657 13.0316C1.87448 10.7663 2.64798 8.58967 3.90881 6.6951C5.16965 4.80052 6.87881 3.24661 8.88452 2.17133C10.8902 1.09605 13.1304 0.532679 15.4062 0.53125C23.035 0.53125 29.2187 6.715 29.2187 14.3438L32.2993 21.5316C32.3854 21.7327 32.4203 21.952 32.4008 22.17C32.3813 22.3879 32.3081 22.5976 32.1877 22.7803C32.0672 22.9629 31.9034 23.1129 31.7108 23.2167C31.5182 23.3205 31.3028 23.3749 31.0841 23.375Z" fill="#FF8A00"/>
<path d="M22.3125 31.875H4.78125V33.4688H22.3125V31.875Z" fill="#FF8A00"/>
<path d="M15.4062 23.375C20.6875 23.375 24.9688 19.0937 24.9688 13.8125C24.9688 8.53128 20.6875 4.25 15.4062 4.25C10.125 4.25 5.84375 8.53128 5.84375 13.8125C5.84375 19.0937 10.125 23.375 15.4062 23.375Z" fill="#F6F6F6"/>
<path d="M15.4057 21.7812C13.0075 21.7813 10.6969 20.8802 8.93184 19.2566C7.16681 17.633 6.07627 15.4055 5.87642 13.0156C5.41158 18.609 9.82294 23.375 15.4057 23.375C20.9885 23.375 25.3965 18.6104 24.935 13.0156C24.7352 15.4055 23.6446 17.633 21.8796 19.2566C20.1146 20.8802 17.8039 21.7813 15.4057 21.7812Z" fill="#DCDCDC"/>
<path d="M15.4062 23.9062C9.84074 23.9062 5.3125 19.378 5.3125 13.8125C5.3125 8.24699 9.84074 3.71875 15.4062 3.71875C20.9718 3.71875 25.5 8.24699 25.5 13.8125C25.5 19.378 20.9718 23.9062 15.4062 23.9062ZM15.4062 4.78125C10.4258 4.78125 6.375 8.83203 6.375 13.8125C6.375 18.793 10.4258 22.8438 15.4062 22.8438C20.3867 22.8438 24.4375 18.793 24.4375 13.8125C24.4375 8.83203 20.3867 4.78125 15.4062 4.78125ZM28.1562 27.0938H25.5C25.3591 27.0938 25.224 27.0378 25.1243 26.9382C25.0247 26.8385 24.9688 26.7034 24.9688 26.5625C24.9688 26.4216 25.0247 26.2865 25.1243 26.1868C25.224 26.0872 25.3591 26.0312 25.5 26.0312H28.1562C28.2971 26.0312 28.4323 26.0872 28.5319 26.1868C28.6315 26.2865 28.6875 26.4216 28.6875 26.5625C28.6875 26.7034 28.6315 26.8385 28.5319 26.9382C28.4323 27.0378 28.2971 27.0938 28.1562 27.0938Z" fill="#F7364E"/>
<path d="M22.3122 34C22.1713 34 22.0362 33.944 21.9366 33.8444C21.837 33.7448 21.781 33.6096 21.781 33.4687V31.3437C21.781 31.2028 21.837 31.0677 21.9366 30.9681C22.0362 30.8685 22.1713 30.8125 22.3122 30.8125H26.5622C26.844 30.8125 27.1143 30.7005 27.3135 30.5013C27.5128 30.302 27.6247 30.0318 27.6247 29.75V26.5625C27.6247 26.4216 27.6807 26.2865 27.7803 26.1868C27.88 26.0872 28.0151 26.0312 28.156 26.0312C28.2969 26.0312 28.432 25.9753 28.5316 25.8756C28.6313 25.776 28.6872 25.6409 28.6872 25.5V23.375C28.6872 23.2341 28.7432 23.099 28.8428 22.9993C28.9425 22.8997 29.0776 22.8437 29.2185 22.8437H31.0838C31.2149 22.8441 31.3441 22.812 31.4597 22.7501C31.5753 22.6883 31.6737 22.5987 31.7461 22.4894C31.8186 22.3801 31.8627 22.2546 31.8746 22.124C31.8865 21.9934 31.8658 21.862 31.8143 21.7414L28.7304 14.5529C28.7019 14.4869 28.6872 14.4157 28.6872 14.3437C28.6894 12.775 28.4128 11.2184 27.8704 9.74643C27.8434 9.68043 27.83 9.60967 27.8309 9.53835C27.8318 9.46704 27.8471 9.39665 27.8758 9.33136C27.9045 9.26608 27.946 9.20724 27.998 9.15836C28.0499 9.10948 28.1111 9.07155 28.178 9.04684C28.2449 9.02213 28.3161 9.01115 28.3874 9.01454C28.4586 9.01793 28.5284 9.03563 28.5927 9.06659C28.6569 9.09754 28.7143 9.14112 28.7613 9.19471C28.8084 9.24831 28.8442 9.31083 28.8665 9.37854C29.4405 10.9333 29.7394 12.5762 29.7497 14.2335L32.7878 21.3224C32.9082 21.6044 32.9568 21.9118 32.9293 22.2172C32.9019 22.5225 32.7991 22.8163 32.6303 23.0723C32.4615 23.3283 32.2319 23.5384 31.9621 23.6839C31.6922 23.8295 31.3904 23.9058 31.0838 23.9062H29.7497V25.5C29.7498 25.8296 29.6476 26.1511 29.4573 26.4202C29.267 26.6894 28.998 26.8929 28.6872 27.0028V29.75C28.6872 30.3136 28.4634 30.8541 28.0648 31.2526C27.6663 31.6511 27.1258 31.875 26.5622 31.875H22.8435V33.4687C22.8435 33.6096 22.7875 33.7448 22.6879 33.8444C22.5883 33.944 22.4531 34 22.3122 34ZM4.78099 34C4.64009 34 4.50496 33.944 4.40534 33.8444C4.30571 33.7448 4.24974 33.6096 4.24974 33.4687V29.9632C4.24974 26.5625 3.55048 23.1758 2.17188 19.886C0.763894 16.5217 0.689964 12.7475 1.96513 9.33071C3.24029 5.91388 5.76882 3.11091 9.03666 1.49167C12.3045 -0.127578 16.0663 -0.441558 19.5574 0.613562C23.0485 1.66868 26.0067 4.0137 27.8306 7.17186C27.8967 7.29355 27.9126 7.43624 27.8751 7.56952C27.8375 7.70279 27.7494 7.81614 27.6295 7.8854C27.5095 7.95466 27.3673 7.97436 27.2331 7.94032C27.0989 7.90627 26.9833 7.82116 26.9109 7.70311C22.5579 0.178621 12.2079 -1.24048 6.0188 4.93132C2.02114 8.91569 1.16649 14.7395 3.15204 19.4743C4.58575 22.8935 5.31224 26.4224 5.31224 29.9632V33.4687C5.31224 33.6096 5.25626 33.7448 5.15664 33.8444C5.05701 33.944 4.92188 34 4.78099 34Z" fill="#F7364E"/>
<path d="M23.375 31.875H18.0625C17.358 31.875 16.6824 31.5951 16.1842 31.097C15.6861 30.5989 15.4062 29.9232 15.4062 29.2188C15.4062 29.0779 15.4622 28.9427 15.5618 28.8431C15.6615 28.7435 15.7966 28.6875 15.9375 28.6875C16.0784 28.6875 16.2135 28.7435 16.3132 28.8431C16.4128 28.9427 16.4688 29.0779 16.4688 29.2188C16.4688 29.6414 16.6367 30.0468 16.9355 30.3457C17.2344 30.6446 17.6398 30.8125 18.0625 30.8125H23.375C23.5159 30.8125 23.651 30.8685 23.7507 30.9681C23.8503 31.0677 23.9062 31.2029 23.9062 31.3438C23.9062 31.4846 23.8503 31.6198 23.7507 31.7194C23.651 31.819 23.5159 31.875 23.375 31.875Z" fill="#F7364E"/>
<path d="M21.2495 12.6769C21.2545 13.0645 21.1869 13.4497 21.0503 13.8125C20.6122 14.9803 19.9292 16.0408 19.0473 16.9227C18.1653 17.8047 17.1048 18.4877 15.937 18.9257L15.4057 19.125L14.8745 18.9257C13.7067 18.4876 12.6463 17.8046 11.7643 16.9226C10.8824 16.0407 10.1994 14.9802 9.76121 13.8125C9.58395 13.3389 9.52342 12.8295 9.58476 12.3276C9.64609 11.8257 9.82748 11.3459 10.1136 10.9289C10.3996 10.5119 10.782 10.17 11.2282 9.93219C11.6745 9.69433 12.1715 9.5675 12.6771 9.56246C14.4887 9.56246 15.3294 11.0407 15.267 10.949C15.282 10.9719 15.3025 10.9907 15.3266 11.0037C15.3507 11.0167 15.3777 11.0235 15.4051 11.0235C15.4325 11.0235 15.4594 11.0167 15.4835 11.0037C15.5076 10.9907 15.5282 10.9719 15.5432 10.949C16.5479 9.44226 18.2446 9.56246 18.1331 9.56246C18.5422 9.56219 18.9474 9.64256 19.3255 9.79896C19.7036 9.95536 20.0472 10.1847 20.3366 10.474C20.626 10.7632 20.8556 11.1066 21.0122 11.4846C21.1689 11.8626 21.2495 12.2677 21.2495 12.6769Z" fill="#F7364E"/>
<path d="M21.0507 12.2187C20.6125 13.3865 19.9295 14.447 19.0476 15.3289C18.1657 16.2108 17.1052 16.8938 15.9374 17.332L15.4062 17.5312L14.8749 17.332C13.7071 16.8938 12.6467 16.2108 11.7647 15.3289C10.8828 14.447 10.1998 13.3865 9.76163 12.2187C9.72252 12.1141 9.68905 12.0075 9.66135 11.8993C9.50129 12.5326 9.53624 13.1994 9.76163 13.8125C10.1998 14.9802 10.8828 16.0407 11.7647 16.9226C12.6467 17.8046 13.7071 18.4876 14.8749 18.9257L15.4062 19.125L15.9374 18.9257C17.1052 18.4876 18.1657 17.8046 19.0476 16.9226C19.9295 16.0407 20.6125 14.9802 21.0507 13.8125C21.2761 13.1994 21.311 12.5326 21.151 11.8993C21.1233 12.0075 21.0898 12.1141 21.0507 12.2187Z" fill="#C50019"/>
<path d="M15.406 19.6562C15.2765 19.6562 15.2479 19.633 14.6908 19.4238C13.451 18.9593 12.3251 18.2345 11.3889 17.2983C10.4527 16.3621 9.72794 15.2362 9.26338 13.9964C8.95438 13.1973 8.93615 12.315 9.21188 11.5038C9.48762 10.6926 10.0398 10.0041 10.7717 9.55886C11.5037 9.11358 12.369 8.93981 13.2161 9.06793C14.0633 9.19606 14.8384 9.61793 15.406 10.2598C15.977 9.62786 16.7506 9.21493 17.5934 9.09211C18.4362 8.96929 19.2955 9.14428 20.0231 9.58693C20.7508 10.0296 21.3012 10.7122 21.5797 11.5171C21.8581 12.322 21.8471 13.1988 21.5485 13.9964C21.084 15.2362 20.3592 16.3621 19.423 17.2983C18.4868 18.2345 17.361 18.9593 16.1212 19.4238C15.5713 19.6304 15.5348 19.6562 15.406 19.6562ZM12.6767 10.0937C12.2572 10.0991 11.8452 10.2052 11.4754 10.4031C11.1056 10.601 10.7888 10.885 10.5517 11.231C10.3146 11.577 10.1641 11.975 10.113 12.3913C10.062 12.8076 10.1117 13.2302 10.2581 13.6232C10.6696 14.721 11.3114 15.7179 12.1404 16.5469C12.9693 17.3758 13.9662 18.0176 15.064 18.4291L15.406 18.5579L15.748 18.4291C16.8457 18.0176 17.8426 17.3758 18.6716 16.5469C19.5005 15.7179 20.1423 14.721 20.5538 13.6232C20.7875 13.0281 20.7927 12.3675 20.5686 11.7687C20.3444 11.1698 19.9066 10.6751 19.3395 10.3797C18.7724 10.0843 18.1161 10.0092 17.4969 10.1687C16.8777 10.3283 16.3394 10.7113 15.9857 11.2439C15.9221 11.3394 15.8359 11.4177 15.7348 11.4718C15.6336 11.526 15.5207 11.5543 15.406 11.5543C15.2912 11.5543 15.1783 11.526 15.0772 11.4718C14.976 11.4177 14.8898 11.3394 14.8262 11.2439C14.5906 10.8898 14.271 10.5995 13.8959 10.3988C13.5209 10.1981 13.102 10.0933 12.6767 10.0937Z" fill="#FF8A00"/>
<path d="M15.4062 15.9375C15.2654 15.9375 15.1302 15.8815 15.0306 15.7819C14.931 15.6823 14.875 15.5471 14.875 15.4062V13.2812C14.875 13.1404 14.931 13.0052 15.0306 12.9056C15.1302 12.806 15.2654 12.75 15.4062 12.75C15.5471 12.75 15.6823 12.806 15.7819 12.9056C15.8815 13.0052 15.9375 13.1404 15.9375 13.2812V15.4062C15.9375 15.5471 15.8815 15.6823 15.7819 15.7819C15.6823 15.8815 15.5471 15.9375 15.4062 15.9375Z" fill="white"/>
<path d="M16.4688 14.875H14.3438C14.2029 14.875 14.0677 14.819 13.9681 14.7194C13.8685 14.6198 13.8125 14.4846 13.8125 14.3438C13.8125 14.2029 13.8685 14.0677 13.9681 13.9681C14.0677 13.8685 14.2029 13.8125 14.3438 13.8125H16.4688C16.6096 13.8125 16.7448 13.8685 16.8444 13.9681C16.944 14.0677 17 14.2029 17 14.3438C17 14.4846 16.944 14.6198 16.8444 14.7194C16.7448 14.819 16.6096 14.875 16.4688 14.875Z" fill="white"/>
</g>
<defs>
<clipPath id="clip0_687_63">
<rect width="34" height="34" fill="white"/>
</clipPath>
</defs>
</svg>
