<svg width="50" height="61" viewBox="0 0 50 61" fill="none" xmlns="http://www.w3.org/2000/svg">
<g clip-path="url(#clip0_724_60)">
<path fill-rule="evenodd" clip-rule="evenodd" d="M11.3663 0.736328H35.0117L49.9999 16.6943V53.8098C49.9999 57.4962 46.9167 60.5306 43.1707 60.5306H11.3663C7.6193 60.5306 4.53711 57.5066 4.53711 53.8098V7.45699C4.53711 3.76022 7.60991 0.736328 11.3663 0.736328Z" fill="#F72B50"/>
<path fill-rule="evenodd" clip-rule="evenodd" d="M40.5023 16.3271H40.5L50.0001 22.7979V16.7125H43.5444C42.4211 16.695 41.4069 16.5636 40.5023 16.3271Z" fill="#F72B50"/>
<path fill-rule="evenodd" clip-rule="evenodd" d="M35.0117 0.734619L49.9998 16.6925V16.7126H43.5441C38.1916 16.6286 35.3102 13.978 35.0117 9.53807V0.734619Z" fill="#FBCFD0"/>
<path d="M0 51.2149V30.3523L0.00332542 30.2049C0.0826603 28.2827 1.70558 26.7329 3.67743 26.7329H4.53705V32.6457H45.2704C46.798 32.6457 48.0463 33.8741 48.0463 35.3773V51.2149C48.0463 52.7144 46.7942 53.9467 45.2704 53.9467H2.77589C1.2519 53.9467 0 52.7166 0 51.2149Z" fill="#F72B50"/>
<path d="M17.0364 28.8281C16.9039 28.8281 16.7727 28.8024 16.6503 28.7525C16.5278 28.7026 16.4166 28.6294 16.3229 28.5372C16.2292 28.445 16.1549 28.3355 16.1042 28.215C16.0535 28.0945 16.0274 27.9654 16.0274 27.835C16.0274 27.7046 16.0535 27.5754 16.1042 27.4549C16.1549 27.3344 16.2292 27.225 16.3229 27.1327C16.4166 27.0405 16.5278 26.9674 16.6503 26.9175C16.7727 26.8675 16.9039 26.8419 17.0364 26.8419H36.416C36.5485 26.8419 36.6797 26.8675 36.8022 26.9175C36.9246 26.9674 37.0358 27.0405 37.1295 27.1327C37.2232 27.225 37.2976 27.3344 37.3483 27.4549C37.399 27.5754 37.425 27.7046 37.425 27.835C37.425 27.9654 37.399 28.0945 37.3483 28.215C37.2976 28.3355 37.2232 28.445 37.1295 28.5372C37.0358 28.6294 36.9246 28.7026 36.8022 28.7525C36.6797 28.8024 36.5485 28.8281 36.416 28.8281H17.0364ZM17.0364 21.9117C16.7688 21.9117 16.5121 21.807 16.3229 21.6208C16.1337 21.4346 16.0273 21.182 16.0273 20.9186C16.0273 20.6552 16.1337 20.4026 16.3229 20.2164C16.5121 20.0302 16.7688 19.9255 17.0364 19.9255H37.5001C37.7677 19.9255 38.0244 20.0302 38.2136 20.2164C38.4029 20.4026 38.5092 20.6552 38.5092 20.9186C38.5092 21.182 38.4029 21.4346 38.2136 21.6208C38.0244 21.807 37.7677 21.9117 37.5001 21.9117H17.0364Z" fill="#BE0022"/>
<path d="M1.3457 33.0132V51.0976C1.3457 52.0085 2.10342 52.7548 3.02967 52.7548H45.1516C46.0779 52.7548 46.8355 52.0092 46.8355 51.0976V35.495C46.8355 34.5836 46.0768 33.8379 45.1516 33.8379H4.50045C3.00188 33.8267 2.17433 33.6464 1.3457 33.0132Z" fill="white"/>
<path d="M16.193 45.3574H14.1699V47.6698H11.0576V38.0981H15.9595C18.1902 38.0981 19.3052 39.2775 19.3052 41.636C19.3052 42.9326 19.0149 43.8924 18.434 44.5152C18.2161 44.7498 17.9153 44.949 17.5314 45.1124C17.1474 45.2756 16.7014 45.3574 16.193 45.3574ZM14.1699 40.5485V42.907H14.8859C15.2594 42.907 15.5317 42.8688 15.7027 42.7922C15.8741 42.7156 15.9595 42.5395 15.9595 42.2637V41.1918C15.9595 40.9161 15.8741 40.74 15.7027 40.6634C15.5317 40.5868 15.2594 40.5485 14.8859 40.5485H14.1699ZM20.4726 47.6698V38.0981H24.8299C26.5832 38.0981 27.7866 38.4657 28.4403 39.2009C29.0937 39.936 29.4207 41.1638 29.4207 42.884C29.4207 44.6044 29.0937 45.832 28.4403 46.5672C27.7866 47.3024 26.5832 47.6698 24.8299 47.6698H20.4726ZM24.8767 40.5485H23.5848V45.2196H24.8767C25.302 45.2196 25.6105 45.171 25.8024 45.0742C25.9943 44.9771 26.0905 44.7549 26.0905 44.4079V41.3602C26.0905 41.0132 25.9943 40.791 25.8024 40.6941C25.6105 40.5971 25.302 40.5485 24.8767 40.5485ZM36.5013 44.1168H33.8556V47.6698H30.7432V38.0981H37.1238L36.7347 40.5485H33.8556V41.8351H36.5013V44.1168Z" fill="#1A1A1A"/>
</g>
<defs>
<clipPath id="clip0_724_60">
<rect width="50" height="59.7959" fill="white" transform="translate(0 0.734619)"/>
</clipPath>
</defs>
</svg>
