<svg width="34" height="30" viewBox="0 0 34 30" fill="none" xmlns="http://www.w3.org/2000/svg">
<path d="M19.3627 11.828C19.2069 11.8989 19.051 11.9343 18.8952 11.9343C18.711 11.9343 18.541 11.8848 18.3781 11.8068C18.3427 11.9555 18.286 12.0405 18.2506 12.0972C18.0948 12.3451 17.8185 12.501 17.5139 12.501L17.436 12.4939C16.671 12.4372 16.0477 11.4455 15.6582 10.631C15.6015 10.4964 15.5165 10.298 15.389 10.0785C15.3465 10.7089 15.3961 11.3605 15.4528 11.998C15.4669 12.2035 15.4882 12.416 15.5519 12.6214C15.6157 12.8339 15.7361 13.0322 15.8565 13.2305C15.9132 13.3155 15.9628 13.4005 16.0407 13.4714C16.2107 13.6201 16.4657 13.6272 16.6924 13.6343C17.2661 13.6414 17.854 13.6485 18.3924 13.4572C18.619 13.3722 18.8386 13.2589 19.0369 13.1243C20.1986 12.3735 20.9919 11.0772 21.1265 9.70304C21.1903 9.10096 21.1265 8.48471 20.9494 7.90388C20.7865 7.37964 20.5032 6.95471 20.2694 6.47304C20.1349 6.19679 20.0569 5.76471 19.7665 5.60888C19.4265 5.41763 18.9519 5.54513 18.4844 5.77895C18.5907 5.85686 18.6474 5.90645 18.6474 5.90645C20.4253 7.19561 20.2482 7.73395 20.1561 8.01728C20.1419 8.06686 20.1065 8.14478 20.0499 8.22978C20.6732 9.1152 20.5882 9.51895 20.5599 9.6677C20.5032 9.95103 20.3261 10.1777 20.0711 10.2981C19.9719 10.3477 19.8657 10.376 19.7453 10.3832C19.8444 10.6311 19.9294 10.9924 19.8161 11.3181C19.7381 11.5447 19.5752 11.7289 19.3627 11.828Z" fill="#FF8A00"/>
<path d="M23.0181 21.1858C23.0572 21.1467 23.2755 20.888 23.2801 20.8811C22.6994 20.9378 22.1326 21.0865 21.6085 21.3203C20.8506 21.6603 20.3618 22.3474 20.1139 23.0486C20.0431 23.254 19.9935 23.4736 20.0147 23.6861C20.0572 24.0544 20.2981 24.3732 20.5672 24.6565C20.801 24.9115 21.0701 25.1524 21.3676 25.3578C21.2559 25.1515 21.2354 24.8689 21.3676 24.5715C21.2614 24.4299 21.1976 24.2457 21.1976 24.0474C21.1976 23.7074 21.2685 23.4665 21.4667 23.254C21.4597 23.2399 21.4526 23.2328 21.4455 23.2186C21.2967 22.8644 21.3747 22.4324 21.6438 22.1561C21.8281 21.9578 22.6073 21.3983 23.0181 21.1858Z" fill="#FF8A00"/>
<path d="M19.4081 23.0823L19.372 23.1021L19.3711 23.1057L19.4081 23.0823Z" fill="black"/>
<path d="M33.1381 16.608C32.9222 16.0013 30.8245 14.5309 30.0637 13.1223C29.5513 12.1735 28.8664 11.4263 28.469 11.0336C28.0605 10.1203 27.2777 9.38725 25.5469 9.21456C25.5469 9.21456 23.5635 8.17327 22.593 7.97493C22.593 7.97493 21.0205 5.34693 21.0771 3.88771H16.1257C16.7703 4.39773 17.4149 4.91483 17.8895 5.29734C18.3712 5.02108 18.8954 4.80857 19.3841 4.80857C19.6533 4.80857 19.8942 4.86524 20.1067 4.98566C20.5529 5.2265 20.7159 5.67277 20.8292 5.97028C20.8504 6.04111 20.8788 6.10487 20.9071 6.16154C20.9709 6.29612 21.0417 6.43071 21.1125 6.55822C21.2967 6.90531 21.4951 7.26657 21.6226 7.69867C21.828 8.37161 21.8988 9.09414 21.8351 9.77416C21.6721 11.368 20.7725 12.8413 19.4266 13.7197C19.1504 13.8968 18.8883 14.0314 18.6262 14.1235C18.0808 14.3218 17.5141 14.3431 17.0324 14.3431H16.6852C16.4302 14.336 15.9556 14.3289 15.5732 14.0031C15.4173 13.8685 15.3182 13.7055 15.2544 13.5993C15.1198 13.3797 14.9711 13.1318 14.8719 12.8343C14.7869 12.5509 14.7657 12.2888 14.7444 12.0551C14.7232 11.7505 14.6948 11.4317 14.6807 11.0988C14.5319 11.2475 14.3548 11.3538 14.1494 11.4246L14.0573 11.4884L13.7952 11.5025C13.3914 11.5025 12.8885 11.2617 12.7752 10.1283C12.7752 10.1213 12.7752 10.1213 12.7752 10.1142C12.7043 9.32081 12.2156 8.61954 11.4647 8.35029C10.6359 8.05278 9.54507 7.59242 8.67379 6.98316C7.83084 6.38106 6.69039 4.35515 6.22287 3.50513C6.1237 3.31387 6.25829 3.08011 6.4708 3.07303C7.83792 3.05178 9.70799 3.90889 10.8201 4.49676C11.5497 4.87927 12.081 5.58054 12.1802 6.40224C12.1872 6.40932 12.1872 6.4164 12.1872 6.42349C12.2793 7.16018 12.8885 8.47772 12.8885 8.47772C12.8885 8.47772 12.931 8.54148 13.0018 8.64065C13.1506 8.89565 13.4198 9.41984 13.4764 10.0644C13.5685 10.957 13.8519 10.7799 13.8519 10.7799C14.8224 10.5177 14.4256 8.97357 14.1423 8.16605C14.0361 7.86138 13.951 7.65603 13.951 7.65603C14.2061 7.67728 14.4611 7.7977 14.7019 7.98896C15.6228 8.70433 16.2957 10.3265 16.2957 10.3265C16.2957 10.3265 16.9757 11.7503 17.4928 11.7858C18.0099 11.8283 17.3441 10.454 17.3441 10.454L16.7277 8.81773C16.8269 8.95941 17.5778 10.114 18.0595 10.6311C18.5765 11.1695 18.8103 11.3041 19.0582 11.1907C19.2991 11.0703 19.0511 10.5461 19.0511 10.5461L17.7124 8.16605C17.8824 8.34313 19.3062 9.88027 19.7666 9.66068C20.2554 9.42692 18.8457 7.86854 18.8457 7.86854C20.6025 8.19438 18.2011 6.4589 18.2011 6.4589C18.2011 6.4589 16.8694 5.37512 15.5944 4.37633C14.7018 3.66798 13.8306 3.0092 13.4622 2.78253C12.5838 2.24418 10.8909 1.67041 7.83077 0.862882C4.77775 0.0553544 2.58893 0.175775 1.59723 0.0269493C0.605525 -0.114722 0.662194 0.310292 0.180511 1.11074C-0.272838 1.87576 0.0600902 2.9383 1.95849 5.19087C2.03641 5.29004 2.11433 5.38213 2.20641 5.48838C4.31732 7.95347 8.58871 11.5094 8.58871 11.5094L8.63121 11.6582L10.5509 18.6851C11.0184 20.5764 11.3301 29.2396 11.3301 29.2396H26.0426C26.0426 29.2396 26.0993 27.7521 26.1914 25.8749C25.9222 25.967 25.5468 25.8678 25.2422 25.5207C24.7818 25.9316 24.123 26.4912 23.5421 26.6824H23.5351C23.5067 26.6966 23.4784 26.7037 23.45 26.7037C23.358 26.732 23.3013 26.7249 23.1171 26.7249L23.025 26.6895C21.2441 26.533 19.0108 24.8975 19.3715 23.1055L18.7872 23.4746L19.1199 23.779L19.1493 23.8143L19.1101 23.8407L18.3419 24.3524L18.6208 24.6832L18.6747 24.7494L18.5964 24.8023L17.9702 25.1905L17.8479 25.0096L18.4056 24.7053L18.1708 24.3745L18.1317 24.3216L18.1904 24.2775L19.027 23.8011L18.7286 23.4836L18.709 23.4659L18.7335 23.4527L19.3725 23.102C19.3919 23.0066 19.4133 22.911 19.4479 22.8149C19.795 21.8162 20.4538 21.0582 21.318 20.6757C22.6922 20.0594 23.8751 20.1586 23.946 20.1515C24.2435 19.854 24.6543 19.4715 25.0227 19.2732C25.0227 19.2661 25.0298 19.2661 25.0368 19.2661C25.2423 19.1315 25.5256 19.0111 25.8089 18.9473C26.1135 18.8694 26.4536 18.7631 26.8432 18.6215L27.9993 15.7596C28.8018 16.599 29.7519 17.991 29.7519 17.991C29.2931 18.4693 27.1886 19.3442 25.9691 19.6331C24.7496 19.9222 23.6163 21.7074 23.3947 21.7921C23.1731 21.877 22.3127 22.4781 22.1524 22.6455C21.9921 22.8129 22.1053 23.1523 22.3811 23.0439C22.6568 22.9354 23.4324 22.6266 23.6257 22.5323C23.819 22.438 23.6796 22.662 23.6796 22.662C23.6796 22.662 22.573 23.3221 22.2507 23.524C21.9284 23.7259 21.9051 23.7997 21.9051 24.0482C21.9051 24.2967 22.2339 24.1932 22.2339 24.1932L23.9733 23.3648L22.5237 24.2863C22.5237 24.2863 22.0629 24.6177 21.9905 24.9335C21.918 25.2493 22.5756 25.0784 22.5756 25.0784L24.4911 24.0483C24.4911 24.0483 23.9526 24.8093 23.7145 25.0267C23.4763 25.2441 22.8551 25.824 23.2227 26.0052C23.5902 26.1864 25.6018 24.2139 25.6018 24.2139C25.5198 24.7957 25.7394 25.0582 25.9067 25.1715C25.9941 25.2307 26.114 25.185 26.148 25.085C26.1864 24.9718 26.2277 24.8027 26.2359 24.5841C26.252 24.1553 26.3807 24.0803 26.595 23.5497C26.8094 23.0191 26.7183 22.9976 26.6486 22.2044C26.5789 21.4112 27.493 21.4613 27.493 21.4613C31.1021 21.3688 31.0713 20.9986 33.0455 20.104C35.0197 19.2094 33.354 17.2146 33.1381 16.608ZM17.2874 11.1483C17.3087 11.1129 17.422 11.035 17.4645 11.042C17.5283 11.0491 17.5708 11.1908 17.592 11.2404C17.6203 11.3041 17.6487 11.375 17.6133 11.4246C17.592 11.46 17.5495 11.4741 17.5141 11.4954C17.4928 11.5025 17.4716 11.5096 17.4503 11.5096C17.4007 11.5096 17.3582 11.4741 17.3299 11.4316C17.2803 11.3537 17.2662 11.2616 17.2803 11.1696C17.2874 11.1625 17.2874 11.1554 17.2874 11.1483ZM18.6687 10.6099C18.697 10.5604 18.7608 10.5249 18.8104 10.4895C18.86 10.4541 18.8955 10.4329 18.938 10.4824C19.023 10.5816 19.0796 10.7233 19.115 10.8437C19.1221 10.8862 19.1292 10.9358 19.1009 10.9712C19.0867 10.9925 19.0655 10.9995 19.0442 11.0066C18.9805 11.0279 18.9167 11.035 18.853 11.0279C18.8317 11.0279 18.8034 11.0208 18.7892 11.0066C18.7679 10.9996 18.7538 10.9783 18.7467 10.9641C18.7254 10.9287 18.7042 10.9004 18.6829 10.872C18.6688 10.8579 18.6617 10.8437 18.6546 10.8225C18.6475 10.8013 18.6475 10.78 18.6404 10.7517C18.6403 10.702 18.6403 10.6525 18.6687 10.6099ZM19.3132 9.03031C19.3628 8.95239 19.4266 8.90281 19.5045 8.95239C19.5895 9.00198 19.6674 9.06573 19.7383 9.12948C19.7453 9.14365 19.7595 9.15073 19.7666 9.1649C19.7808 9.18615 19.7808 9.2074 19.7878 9.22865C19.7949 9.32074 19.7737 9.41276 19.7383 9.49074C19.7241 9.51908 19.7099 9.54033 19.6887 9.5545C19.6604 9.56866 19.6321 9.57575 19.6037 9.57575C19.54 9.57575 19.4692 9.58283 19.4125 9.54741C19.3912 9.53325 19.37 9.512 19.3487 9.49074C19.2425 9.36331 19.2354 9.17198 19.3132 9.03031ZM19.0229 7.52859C19.0583 7.45068 19.1291 7.37984 19.2141 7.40817C19.2921 7.43651 19.37 7.54985 19.3558 7.63485C19.3416 7.6986 19.2779 7.75527 19.2141 7.74819C19.1646 7.7411 19.1221 7.71277 19.0796 7.67735C19.0583 7.66318 19.03 7.64193 19.0158 7.60651C19.0086 7.58533 19.0158 7.54992 19.0229 7.52859ZM13.611 10.0787C13.6252 10.0574 13.6465 10.0433 13.6677 10.022C13.689 10.0008 13.6819 9.97243 13.696 9.95118C13.7102 9.92993 13.7456 9.92993 13.774 9.92284C13.8377 9.91576 13.9015 9.92284 13.9652 9.93701C14.0006 9.94402 14.0431 9.95118 14.0573 9.98652C14.0786 10.0078 14.0786 10.0432 14.0786 10.0716V10.2274C14.0786 10.2487 14.0786 10.277 14.0715 10.2983C14.0715 10.3195 14.0573 10.3337 14.0502 10.3549C14.036 10.3904 14.0148 10.4258 13.9935 10.4683C13.9723 10.5108 13.951 10.5604 13.9156 10.6029C13.8802 10.6383 13.8306 10.6666 13.774 10.6595C13.7173 10.6595 13.6677 10.6099 13.6394 10.5604C13.611 10.5108 13.604 10.447 13.5969 10.3903C13.5898 10.362 13.5898 10.3336 13.5827 10.3124C13.5756 10.2345 13.5614 10.1424 13.611 10.0787ZM18.6428 22.346L18.4471 22.7342L18.4324 22.7562H18.4031L17.6741 22.743L17.5567 23.087L17.5372 23.1488L17.4589 23.1444C17.3024 23.14 17.136 23.1312 16.9746 23.1179L17.0872 22.9327C17.1899 22.9415 17.2926 22.9548 17.4003 22.9636L17.547 22.6504L17.5715 22.5974L17.6253 22.6019L18.3836 22.6724L18.6135 22.3151L18.6184 22.3107L18.6331 22.3151L19.1908 22.2799L18.6428 22.346ZM19.1639 21.5037L18.611 21.4993H18.5817L18.5719 21.4817L18.2833 20.873L17.8821 20.8597H17.8039L17.7892 20.7847L17.7109 20.348L17.9506 20.3215L17.9751 20.6965L18.3371 20.7362L18.3909 20.7406L18.4056 20.7803L18.6404 21.4198L19.1787 21.464H19.1933L19.1982 21.4728L19.3254 21.8919L19.1639 21.5037ZM20.1082 21.5831L19.9125 21.8742L20.0642 21.5787L19.6727 21.2964L19.6581 21.2876L19.663 21.2611L19.7754 20.6788L19.4966 20.5509L19.4085 20.5157L19.4574 20.4363L19.6678 20.0217L19.883 20.1319L19.6678 20.4495L19.8977 20.573L19.9467 20.6039L19.9369 20.6524L19.7558 21.2567L20.0934 21.5565L20.113 21.5698L20.1082 21.5831ZM21.5587 14.1092L21.2329 14.6051L21.4383 14.8247L21.5091 14.8955L21.4312 14.945L21.0771 15.2497L20.9212 15.0655L21.24 14.853L21.0771 14.6547L21.0416 14.6051L21.07 14.5626L21.4737 14.0738L21.2754 13.6701L21.2612 13.6488L21.2754 13.6417L21.5658 13.4434L21.3108 13.663L21.5658 14.0738L21.5729 14.088L21.5587 14.1092ZM23.103 15.2709L23.0109 15.703L22.7772 15.6322L22.8976 15.278L22.5788 15.1009L22.5363 15.0797V15.0372L22.5647 14.3572L22.083 14.1092L22.0688 14.1022V14.0881L22.1113 13.656V14.0739L22.6213 14.2935L22.6497 14.3006V14.3218L22.6851 14.9948L23.0464 15.1648L23.1243 15.1932L23.103 15.2709ZM23.9672 13.33C23.8751 13.2875 23.783 13.2309 23.6909 13.1813L23.4288 13.415L23.3863 13.4575L23.3438 13.4292L22.6709 13.075L22.3167 13.3159H22.3096L22.3026 13.3088L21.7713 13.1247L22.3026 13.2734L22.6355 12.9901L22.6568 12.9759L22.6851 12.9901L23.3509 13.2805L23.5918 13.0113L23.6343 12.9618L23.7051 12.9972C23.8468 13.0609 23.9956 13.1318 24.1372 13.2026L23.9672 13.33ZM23.6342 11.3183L23.7193 11.715L23.7405 11.7787L23.6697 11.8L22.7134 11.9133L22.8622 12.3242L22.8764 12.3454L22.848 12.3525L22.083 12.4304L22.8055 12.31L22.6143 11.8992L22.6001 11.8567L22.6497 11.8496L23.5564 11.6725L23.4218 11.2616L23.4005 11.1766L23.4926 11.1554L24.2222 11.042L24.2647 11.2546L23.6342 11.3183ZM22.4003 22.8688C22.4003 22.8914 22.399 22.9168 22.3823 22.932C22.3677 22.9452 22.3461 22.9461 22.3264 22.9464C22.3054 22.9467 22.2844 22.9469 22.2635 22.9472C22.241 22.9475 22.2179 22.9476 22.197 22.9393C22.1587 22.9239 22.136 22.8803 22.1388 22.8392C22.1469 22.7226 22.2684 22.642 22.3529 22.7484C22.362 22.7598 22.3696 22.7729 22.381 22.7823C22.3872 22.7873 22.3946 22.7914 22.398 22.7985C22.4004 22.8035 22.4004 22.8093 22.4004 22.8149C22.4004 22.8329 22.4003 22.8509 22.4003 22.8688ZM22.2939 24.0566C22.282 24.0899 22.2566 24.1197 22.2228 24.1307C22.203 24.1371 22.1817 24.1367 22.1608 24.1362C22.1251 24.1351 22.087 24.1325 22.0589 24.1106C22.0367 24.0934 22.0242 24.0668 22.0139 24.0407C21.9988 24.0024 21.9869 23.9579 22.005 23.9209C22.0202 23.8899 22.0522 23.8677 22.0768 23.8444C22.0918 23.8302 22.1053 23.814 22.1259 23.8083C22.1795 23.7933 22.2449 23.8244 22.2738 23.8698C22.2893 23.8942 22.2967 23.9229 22.3007 23.9514C22.3058 23.9866 22.3059 24.0232 22.2939 24.0566ZM22.4158 24.939C22.4094 24.9623 22.4007 24.9863 22.3822 25.0018C22.3585 25.0216 22.3249 25.0229 22.294 25.0226C22.2424 25.022 22.1894 25.019 22.1428 24.997C22.0962 24.9749 22.0572 24.9295 22.0576 24.878C22.0579 24.8379 22.0812 24.8015 22.1088 24.7725C22.1476 24.7316 22.1869 24.6748 22.2463 24.679C22.3057 24.6832 22.3639 24.7094 22.4057 24.7519C22.4163 24.7626 22.426 24.7745 22.4309 24.7889C22.4354 24.8025 22.435 24.8173 22.4341 24.8316C22.4315 24.8678 22.4254 24.9039 22.4158 24.939ZM23.5673 25.8257C23.5609 25.8489 23.5521 25.8729 23.5337 25.8884C23.51 25.9083 23.4764 25.9095 23.4455 25.9093C23.3939 25.9086 23.3409 25.9056 23.2943 25.8836C23.2477 25.8616 23.2087 25.8161 23.2091 25.7646C23.2094 25.7246 23.2327 25.6882 23.2603 25.6591C23.2991 25.6183 23.3383 25.5615 23.3977 25.5656C23.4571 25.5699 23.5153 25.596 23.5572 25.6385C23.5677 25.6492 23.5775 25.6612 23.5823 25.6755C23.5868 25.6892 23.5865 25.7039 23.5856 25.7183C23.5831 25.7545 23.5769 25.7905 23.5673 25.8257ZM26.136 24.8399C26.1296 24.8631 26.1208 24.8871 26.1024 24.9026C26.0788 24.9225 26.0451 24.9238 26.0142 24.9234C25.9626 24.9228 25.9096 24.9198 25.863 24.8978C25.8164 24.8758 25.7774 24.8303 25.7779 24.7788C25.7781 24.7388 25.8014 24.7024 25.829 24.6733C25.8678 24.6324 25.9071 24.5756 25.9664 24.5798C26.0258 24.5841 26.084 24.6103 26.1259 24.6527C26.1365 24.6634 26.1463 24.6754 26.1511 24.6897C26.1556 24.7034 26.1553 24.7181 26.1543 24.7325C26.1517 24.7687 26.1456 24.8047 26.136 24.8399Z" fill="#F7364E"/>
</svg>
