<svg width="53" height="52" viewBox="0 0 53 52" fill="none" xmlns="http://www.w3.org/2000/svg">
<path d="M26.0572 10.6559C29.0774 10.6559 31.2841 8.31403 31.2841 5.32809C31.2841 2.34148 29.0774 0 26.0572 0C23.0373 0 20.834 2.34283 20.834 5.32809C20.834 8.31302 23.0373 10.6559 26.0572 10.6559Z" fill="#FC5876"/>
<path d="M31.0613 46.3105C33.0367 46.055 35.0981 45.8305 36.9464 45.0418C37.6215 44.7446 38.2454 44.3889 38.7457 43.8396C39.2513 43.2849 40.0944 43.2231 40.8239 43.295C41.9205 43.4046 43.7648 44.1395 43.6545 42.384C43.6088 41.6397 42.8275 41.3028 42.209 41.1159C41.0982 40.7804 39.806 40.4193 38.6414 40.5942C37.7035 40.7696 36.7481 41.0937 35.835 41.3728C31.9885 42.5487 28.2031 43.5929 24.1653 42.7544C19.8618 41.8602 16.0254 39.2568 11.5108 39.4693C8.40722 39.6152 3.14502 41.282 3.61769 45.3363C3.84898 47.3191 5.59307 48.7371 7.21177 49.6636C9.25238 50.8315 11.575 51.444 13.9 51.7015C16.2059 51.9583 18.2613 51.8743 20.3617 50.812C22.2907 49.8364 23.9467 48.3928 25.8727 47.4219C27.4353 46.6353 29.3562 46.5311 31.0613 46.3105Z" fill="#D18045"/>
<path d="M52.0252 39.0133C51.8881 38.7612 51.5674 38.6039 51.2856 38.6106C50.971 38.8103 48.4886 39.3475 49.0225 38.4499C49.36 37.8804 49.8609 37.8347 50.4405 37.7527C50.7814 37.7069 50.8372 37.3069 50.503 37.1664C50.0902 37.0063 49.6088 37.0978 49.1832 37.1469C48.2661 37.2551 47.9783 36.8887 47.316 36.2661C46.4716 35.4707 45.7152 34.5765 45.0273 33.6432C44.0518 32.3167 43.1972 30.8953 42.4704 29.4154C41.8148 28.0862 41.2716 26.7926 40.9703 25.3225C40.4728 22.8795 40.1743 20.4331 39.5624 18.0102C39.1005 16.1764 38.6386 14.3197 37.2179 12.9541C36.5725 12.3319 35.6527 12.3877 34.7974 12.2929C33.5435 12.155 32.2862 12.0437 31.0282 11.9553C30.38 11.9093 29.6203 11.7422 29.0145 11.9883C28.3926 12.2404 27.7343 12.4105 27.066 12.4959C25.7008 12.6727 24.2925 12.4892 23.0221 11.9553C22.4392 11.7066 21.6663 11.8834 21.0376 11.9291C20.4184 11.9718 19.8002 12.0242 19.1843 12.0831C18.2245 12.1779 17.1279 12.1779 16.2074 12.4825C14.734 12.9706 13.9251 14.5913 13.48 15.9636C12.8803 18.7471 12.1047 21.4551 11.5937 24.2611C10.8766 28.2038 9.01623 31.4359 6.5312 34.5408C5.82354 35.4243 5.07723 36.2923 4.30435 37.1213C3.92144 37.5335 2.55555 37.1274 1.95984 37.3069C1.01316 37.5987 1.65526 37.9463 2.28089 37.9329C2.66716 37.9261 3.80647 38.2045 3.43936 38.889C2.6601 40.3433 -0.316088 37.0453 0.0274868 39.4685C0.308868 41.4594 2.53908 41.5905 4.1013 41.6725C5.68941 41.7539 7.11716 40.1953 8.09308 39.1444C9.77263 37.3304 11.2858 35.31 12.7821 33.3481C14.6455 30.9121 15.6053 27.7224 15.7485 24.674C15.6181 29.1176 15.138 33.9081 14.5427 38.3127C16.8246 38.4929 18.7778 39.3872 20.805 40.3594C23.0382 41.4338 25.1488 42.0759 27.6409 41.772C30.3854 41.4338 32.976 40.7386 35.6775 40.1953C36.8367 39.9627 37.9824 39.3979 39.1839 39.4564C40.2388 39.5095 41.3885 39.804 42.391 40.1409C43.6019 40.5503 44.8377 41.1548 44.7396 42.56C44.6737 43.5127 43.9664 44.3606 43.0795 44.6786C42.1362 45.0121 41.1734 44.5112 40.2146 44.5112C38.8618 44.5112 38.1377 45.6085 36.9954 46.1847C34.624 47.3808 31.9197 47.0561 29.3681 47.403C26.3096 47.8192 24.1059 49.8228 21.519 51.3034C21.519 51.3034 28.4974 50.9625 36.8441 51.8466L41.1344 51.9999C44.4451 51.306 47.6637 49.8 49.2027 46.6957C50.0969 44.8884 49.6612 43.0085 48.1814 41.6631C46.9624 40.5591 45.2008 40.0548 43.6423 39.6978C41.835 39.2856 40.0176 38.9125 38.2036 38.5192C37.9481 38.4633 37.4499 38.4828 37.3947 38.191C37.2932 37.6706 37.2307 37.1435 37.1688 36.6197C36.6874 32.6475 36.2383 28.5871 36.1697 24.5856C36.7036 26.5499 36.9786 28.7901 38.0261 30.5484C39.0023 32.1829 40.0337 33.7837 41.1438 35.3295C42.3688 37.0353 43.7015 38.8466 45.4106 40.0972C46.4393 40.6082 47.5655 40.9948 48.7018 41.1615C49.4683 41.2731 50.2993 41.2859 51.0234 40.9719C51.6844 40.6808 52.4347 39.7798 52.0252 39.0133Z" fill="#DF9E6F"/>
</svg>
