<svg width="31" height="34" viewBox="0 0 31 34" fill="none" xmlns="http://www.w3.org/2000/svg">
<path d="M23.2762 16.4404H19.3697V11.8681C20.9146 10.6522 21.9097 8.76378 21.9097 6.64505C21.9097 2.97457 18.9352 0 15.2661 0C12.2506 0 9.47126 2.26285 8.8944 4.7565C8.76548 5.30932 8.62024 6.75808 8.62024 6.75808L7.23507 10.2539C7.2073 10.3162 7.19342 10.3876 7.19342 10.4624C7.19342 10.7562 7.42934 10.9932 7.72419 10.9966C7.8725 10.6974 8.20317 10.5132 8.55315 10.5823C8.96646 10.6581 9.23732 11.0589 9.15534 11.4722C9.10355 11.7579 8.88924 11.9742 8.61983 12.0538V12.854C8.61983 14.3011 9.79313 15.4736 11.2391 15.4736H12.28V16.4407L8.04813 16.4406C3.1836 16.4369 0 20.0098 0 23.6608V33.85L5.35508 33.8475V25.0262H6.89695V33.8475L23.9864 33.85V25.0267H25.5672V33.85L30.8069 33.8475L30.8107 22.6979C30.8107 19.9212 28.0601 16.437 23.2762 16.4404ZM10.2287 9.54459C10.0987 9.65059 9.92716 9.7091 9.76231 9.7091C9.5264 9.7091 9.30294 9.60354 9.16145 9.4139C9.03142 9.25512 8.97831 9.05481 9.00266 8.85436C9.02569 8.6472 9.13158 8.47078 9.29036 8.34661C9.60926 8.09306 10.1102 8.15201 10.3577 8.47079C10.4877 8.6353 10.5408 8.83575 10.5164 9.03606C10.4935 9.23726 10.3937 9.42008 10.2287 9.54459ZM12.4981 9.01348V9.03078L12.3322 9.01932C11.9142 8.98373 11.601 8.61284 11.6366 8.19366C11.6722 7.8047 12.0029 7.49263 12.3979 7.49263L12.4623 7.49836C12.6627 7.51566 12.8512 7.61009 12.9815 7.76303C13.1104 7.92313 13.1761 8.11772 13.1579 8.32356C13.129 8.6831 12.8457 8.97215 12.4981 9.01348ZM14.1537 9.97412C14.0362 9.80927 13.9891 9.60885 14.0247 9.40851C14.0603 9.20808 14.1662 9.03111 14.3368 8.91365C14.6671 8.67774 15.1621 8.76644 15.3983 9.09579C15.64 9.44442 15.5575 9.92145 15.2152 10.1634C15.0849 10.2521 14.9319 10.2992 14.7731 10.2992C14.5256 10.2988 14.2955 10.1814 14.1537 9.97412ZM15.4688 15.758C15.0507 15.758 14.7088 15.416 14.7088 14.998C14.7088 14.5786 15.0507 14.2367 15.4688 14.2367C15.8935 14.2367 16.2355 14.5786 16.2355 14.998C16.2355 15.416 15.8935 15.758 15.4688 15.758ZM15.4688 12.9632C15.0507 12.9632 14.7088 12.6213 14.7088 12.1975C14.7088 11.7785 15.0507 11.4366 15.4688 11.4366C15.8935 11.4366 16.2355 11.7785 16.2355 12.1975C16.2355 12.6214 15.8935 12.9632 15.4688 12.9632ZM18.6755 19.6108C21.4488 19.5143 23.0323 25.7408 22.0777 31.554C21.5157 34.0207 20.0443 31.4896 18.7516 31.272C17.3202 31.0304 16.5145 30.8634 16.4465 30.1137C16.1976 27.3976 17.2385 19.6641 18.6755 19.6108ZM14.4798 30.0928C14.4118 30.8402 13.6071 31.007 12.1759 31.2478C10.8829 31.4665 9.33902 34.1451 8.84932 31.5311C7.89607 25.7162 9.48026 19.49 12.2493 19.5888C13.6886 19.6416 14.7286 27.3743 14.4798 30.0928ZM16.4776 21.1637C16.1943 21.1637 15.935 21.0046 15.7993 20.7514C15.6047 20.3794 15.7522 19.92 16.1239 19.7258C16.4892 19.5369 16.9667 19.6902 17.1556 20.0504C17.2487 20.2268 17.2673 20.4325 17.202 20.6272C17.143 20.8218 17.0141 20.9819 16.831 21.076C16.725 21.1352 16.6005 21.1637 16.4776 21.1637ZM15.4688 18.5578C15.1154 18.5578 14.8148 18.3162 14.7261 17.974C14.6788 17.7735 14.7147 17.5678 14.8206 17.3971C14.9266 17.2197 15.0924 17.1023 15.2927 17.0552C15.6935 16.955 16.1112 17.214 16.2114 17.6148C16.3115 18.0209 16.0583 18.4345 15.6518 18.5348C15.593 18.5467 15.5273 18.5578 15.4688 18.5578ZM14.4615 21.1637C14.3427 21.1637 14.2198 21.1349 14.1068 21.076C13.7361 20.8817 13.5943 20.4207 13.7892 20.0504C13.9781 19.6901 14.4557 19.5369 14.8148 19.7257C14.998 19.8198 15.1269 19.979 15.1926 20.1736C15.2515 20.3678 15.2329 20.5743 15.1384 20.7574C15.0094 21.0107 14.7501 21.1637 14.4615 21.1637Z" fill="#FF8A00"/>
<path d="M20.2035 31.0857C20.4682 31.0857 20.7214 30.9439 20.8575 30.7207C21.0751 30.3545 20.9577 29.8893 20.5982 29.6704C20.2509 29.4585 19.7611 29.5889 19.5482 29.9307C19.4481 30.1071 19.4125 30.3071 19.4667 30.5088C19.5137 30.7093 19.6369 30.8738 19.814 30.9797C19.9317 31.0507 20.0674 31.0857 20.2035 31.0857Z" fill="#FF8A00"/>
<path d="M20.9988 28.4368C21.405 28.4368 21.7412 28.1132 21.7585 27.7071C21.7771 27.282 21.4464 26.9284 20.9988 26.9103C20.5852 26.9103 20.2504 27.2352 20.2318 27.6415C20.2257 27.8477 20.2962 28.0423 20.4322 28.1896C20.5737 28.3371 20.7626 28.4255 20.9688 28.4371L20.9988 28.4368Z" fill="#FF8A00"/>
<path d="M20.4212 25.7326C20.5454 25.7326 20.6571 25.7038 20.7631 25.6507C21.1408 25.4619 21.2939 25.0085 21.1053 24.6305C20.9283 24.2645 20.4571 24.0997 20.0851 24.2832C19.902 24.3773 19.7675 24.5303 19.7015 24.7253C19.6372 24.9199 19.6487 25.126 19.7432 25.3092C19.8732 25.5678 20.1325 25.7326 20.4212 25.7326Z" fill="#FF8A00"/>
<path d="M18.6218 23.6277C18.8689 23.6277 19.0994 23.5099 19.247 23.304C19.4829 22.9621 19.4 22.4843 19.0581 22.2425C18.7287 22.0066 18.2324 22.0949 17.9975 22.4253C17.7556 22.7729 17.8374 23.2509 18.1793 23.4926C18.3096 23.5813 18.4626 23.6277 18.6218 23.6277Z" fill="#FF8A00"/>
<path d="M10.7354 31.0856C10.8769 31.0856 11.0117 31.0507 11.1305 30.9796C11.3007 30.874 11.4253 30.709 11.4781 30.5087C11.5252 30.3141 11.4954 30.1065 11.3894 29.9366C11.1778 29.589 10.6884 29.4645 10.3404 29.6705C10.1687 29.7775 10.0455 29.9424 9.99274 30.1427C9.94536 30.3373 9.97412 30.5434 10.0814 30.7208C10.2162 30.9508 10.4694 31.0856 10.7354 31.0856Z" fill="#FF8A00"/>
<path d="M9.94507 28.4369H9.97383C10.3929 28.4196 10.7165 28.0659 10.705 27.6411C10.6877 27.235 10.3631 26.9099 9.90926 26.9099C9.70883 26.9228 9.51996 27.0043 9.37849 27.1574C9.24274 27.3049 9.17233 27.4996 9.17806 27.7068C9.19668 28.1133 9.53176 28.4369 9.94507 28.4369Z" fill="#FF8A00"/>
<path d="M10.5105 25.7324C10.8054 25.7324 11.0714 25.5679 11.2004 25.3087C11.2891 25.1255 11.3006 24.9197 11.236 24.7248C11.1713 24.5299 11.0356 24.3771 10.8524 24.2827C10.4817 24.0992 10.0096 24.2641 9.83217 24.63C9.73906 24.8131 9.72661 25.0193 9.79184 25.2139C9.85652 25.4031 9.99228 25.5615 10.174 25.6502C10.2817 25.7037 10.3992 25.7324 10.5105 25.7324Z" fill="#FF8A00"/>
<path d="M12.3145 23.6276C12.4732 23.6276 12.6265 23.5812 12.7565 23.4928C13.0985 23.2512 13.1813 22.7732 12.9397 22.4255C12.7038 22.0952 12.2085 22.0068 11.8781 22.2427C11.7079 22.3612 11.6005 22.5373 11.5661 22.7376C11.5305 22.938 11.5718 23.1398 11.6893 23.3043C11.8369 23.5098 12.0671 23.6276 12.3145 23.6276Z" fill="#FF8A00"/>
<path d="M10.6577 9.05196C10.5277 9.15796 10.3561 9.21647 10.1913 9.21647C9.95537 9.21647 9.73192 9.11091 9.59042 8.92127C9.4604 8.76249 9.40729 8.56218 9.43164 8.36173C9.45467 8.15457 9.56056 7.97815 9.71934 7.85398C10.0382 7.60043 10.5391 7.65939 10.7866 7.97816C10.9167 8.14267 10.9698 8.34312 10.9454 8.54343C10.9225 8.74463 10.8227 8.92745 10.6577 9.05196ZM12.9271 8.52085V8.53815L12.7612 8.52669C12.3432 8.4911 12.03 8.12021 12.0656 7.70103C12.1012 7.31207 12.4319 7 12.8269 7L12.8912 7.00573C13.0917 7.02303 13.2802 7.11746 13.4104 7.2704C13.5394 7.43051 13.605 7.6251 13.5869 7.83093C13.558 8.19048 13.2747 8.47953 12.9271 8.52085ZM14.5826 9.48149C14.4652 9.31665 14.4181 9.11622 14.4537 8.91588C14.4893 8.71545 14.5952 8.53848 14.7657 8.42103C15.0961 8.18511 15.5911 8.27381 15.8273 8.60317C16.069 8.95179 15.9864 9.42883 15.6442 9.6708C15.5138 9.7595 15.3609 9.80655 15.2021 9.80655C14.9546 9.80622 14.7244 9.68874 14.5826 9.48149ZM15.8977 15.2653C15.4797 15.2653 15.1378 14.9234 15.1378 14.5054C15.1378 14.086 15.4797 13.7441 15.8977 13.7441C16.3225 13.7441 16.6644 14.086 16.6644 14.5054C16.6644 14.9234 16.3225 15.2653 15.8977 15.2653ZM15.8977 12.4706C15.4797 12.4706 15.1378 12.1287 15.1378 11.7049C15.1378 11.2859 15.4797 10.9439 15.8977 10.9439C16.3225 10.9439 16.6644 11.2858 16.6644 11.7049C16.6644 12.1288 16.3225 12.4706 15.8977 12.4706ZM19.1045 19.1182C21.8778 19.0217 23.4612 25.2482 22.5067 31.0614C21.9447 33.528 20.4732 30.997 19.1806 30.7794C17.7492 30.5377 16.9434 30.3708 16.8755 29.6211C16.6265 26.9049 17.6675 19.1715 19.1045 19.1182ZM14.9087 29.6002C14.8408 30.3476 14.036 30.5144 12.6049 30.7552C11.3118 30.9739 9.76799 33.6524 9.2783 31.0384C8.32505 25.2236 9.90923 18.9974 12.6783 19.0961C14.1175 19.1489 15.1576 26.8817 14.9087 29.6002ZM16.9066 20.6711C16.6233 20.6711 16.364 20.512 16.2283 20.2588C16.0337 19.8867 16.1812 19.4274 16.5529 19.2331C16.9181 19.0443 17.3957 19.1975 17.5846 19.5577C17.6777 19.7342 17.6963 19.9399 17.631 20.1346C17.572 20.3292 17.4431 20.4893 17.26 20.5834C17.154 20.6426 17.0294 20.6711 16.9066 20.6711ZM15.8978 18.0652C15.5444 18.0652 15.2438 17.8236 15.1551 17.4813C15.1077 17.2809 15.1437 17.0752 15.2496 16.9045C15.3556 16.7271 15.5214 16.6096 15.7217 16.5626C16.1225 16.4624 16.5402 16.7214 16.6403 17.1221C16.7405 17.5283 16.4873 17.9419 16.0808 18.0422C16.022 18.0541 15.9563 18.0652 15.8978 18.0652ZM14.8904 20.6711C14.7717 20.6711 14.6488 20.6423 14.5357 20.5834C14.1651 20.3891 14.0233 19.9281 14.2182 19.5577C14.407 19.1975 14.8847 19.0443 15.2438 19.2331C15.4269 19.3272 15.5558 19.4863 15.6215 19.6809C15.6805 19.8752 15.6619 20.0817 15.5673 20.2648C15.4384 20.518 15.1791 20.6711 14.8904 20.6711Z" fill="#C50019"/>
<path d="M20.6332 30.5931C20.8979 30.5931 21.1511 30.4513 21.2872 30.2282C21.5048 29.8619 21.3874 29.3968 21.0279 29.1779C20.6806 28.966 20.1908 29.0963 19.9779 29.4381C19.8778 29.6145 19.8422 29.8145 19.8964 30.0163C19.9434 30.2167 20.0666 30.3812 20.2437 30.4871C20.3614 30.5582 20.4971 30.5931 20.6332 30.5931Z" fill="#C50019"/>
<path d="M21.4275 27.9443C21.8337 27.9443 22.1699 27.6206 22.1872 27.2145C22.2058 26.7894 21.8751 26.4359 21.4275 26.4177C21.0139 26.4177 20.6791 26.7427 20.6605 27.1489C20.6545 27.3551 20.7249 27.5497 20.861 27.697C21.0024 27.8446 21.1913 27.9329 21.3975 27.9445L21.4275 27.9443Z" fill="#C50019"/>
<path d="M20.8499 25.2399C20.9741 25.2399 21.0858 25.2112 21.1918 25.1581C21.5695 24.9692 21.7226 24.5159 21.5341 24.1378C21.357 23.7719 20.8858 23.607 20.5138 23.7905C20.3307 23.8846 20.1962 24.0377 20.1302 24.2326C20.0659 24.4272 20.0775 24.6334 20.1719 24.8165C20.3019 25.0751 20.5612 25.2399 20.8499 25.2399Z" fill="#C50019"/>
<path d="M19.0514 23.135C19.2986 23.135 19.5291 23.0172 19.6767 22.8114C19.9126 22.4695 19.8297 21.9916 19.4878 21.7498C19.1584 21.5139 18.6621 21.6023 18.4272 21.9326C18.1852 22.2802 18.2671 22.7583 18.609 22.9999C18.7393 23.0886 18.8923 23.135 19.0514 23.135Z" fill="#C50019"/>
<path d="M11.1651 30.593C11.3066 30.593 11.4414 30.5582 11.5601 30.487C11.7304 30.3814 11.855 30.2165 11.9078 30.0162C11.9548 29.8216 11.9251 29.614 11.8191 29.4441C11.6075 29.0964 11.1181 28.9719 10.7701 29.178C10.5984 29.285 10.4752 29.4498 10.4224 29.6501C10.3751 29.8447 10.4038 30.0509 10.5111 30.2283C10.6459 30.4583 10.8991 30.593 11.1651 30.593Z" fill="#C50019"/>
<path d="M10.3748 27.9442H10.4035C10.8226 27.9269 11.1462 27.5732 11.1347 27.1485C11.1174 26.7423 10.7928 26.4172 10.3389 26.4172C10.1385 26.4301 9.94965 26.5117 9.80818 26.6647C9.67243 26.8123 9.60202 27.007 9.60775 27.2141C9.62637 27.6206 9.96145 27.9442 10.3748 27.9442Z" fill="#C50019"/>
<path d="M10.9402 25.2399C11.2351 25.2399 11.5011 25.0754 11.6301 24.8161C11.7188 24.633 11.7302 24.4271 11.6657 24.2322C11.601 24.0373 11.4652 23.8846 11.2821 23.7901C10.9114 23.6067 10.4393 23.7715 10.2619 24.1374C10.1687 24.3206 10.1563 24.5267 10.2215 24.7213C10.2862 24.9105 10.422 25.069 10.6037 25.1577C10.7114 25.2111 10.8289 25.2399 10.9402 25.2399Z" fill="#C50019"/>
<path d="M12.7442 23.1349C12.9029 23.1349 13.0562 23.0885 13.1862 23.0001C13.5281 22.7585 13.611 22.2805 13.3694 21.9329C13.1335 21.6025 12.6381 21.5141 12.3078 21.7501C12.1376 21.8685 12.0302 22.0446 11.9958 22.2449C11.9602 22.4453 12.0015 22.6471 12.119 22.8116C12.2666 23.0171 12.4968 23.1349 12.7442 23.1349Z" fill="#C50019"/>
</svg>
