<svg width="65" height="52" viewBox="0 0 65 52" fill="none" xmlns="http://www.w3.org/2000/svg">
<path d="M60.3483 15.6689C58.4538 14.3133 56.1665 13.7202 53.856 13.7202H31.8916C31.0598 13.7202 30.2358 13.6971 29.404 13.7202C29.3116 13.7202 29.2115 13.7279 29.1191 13.7433C27.4017 13.9205 25.8922 15.2452 25.4686 16.9166C25.3069 17.5559 25.33 18.1874 25.33 18.8344V28.6623H6.16114V8.62142C6.16114 6.80372 6.18424 4.97832 6.16114 3.16062C6.16114 3.13752 6.16114 3.10671 6.16114 3.0836C6.16114 1.47386 4.74408 -0.0742622 3.08057 0.00275889C1.40936 0.07978 0 1.35833 0 3.0836V42.5261C0 44.3438 0 46.1692 0 47.9869V48.0639C0 49.6737 1.41706 51.2218 3.08057 51.1448C4.75178 51.0678 6.16114 49.7892 6.16114 48.0639V40.8316H58.8389V48.0639C58.8389 49.6737 60.2559 51.2218 61.9194 51.1448C63.5906 51.0678 65 49.7892 65 48.0639V30.5801C65 30.5031 65 30.4338 64.9923 30.3568C64.9615 30.0025 64.8691 29.6482 64.715 29.3247C64.8922 29.5789 65 29.8792 65 30.2027V24.5417C64.9769 20.991 63.221 17.733 60.3483 15.6689Z" fill="#1400FF"/>
<path d="M22.3773 20.4929C22.3388 17.6584 20.5586 15.2322 17.9229 14.2385C15.426 13.2989 12.3434 14.123 10.6557 16.1873C8.86009 18.3747 8.49789 21.4711 9.97753 23.9359C11.4495 26.3852 14.2932 27.5791 17.0752 27.0477C20.1193 26.47 22.3002 23.6586 22.3696 20.6161C22.3696 20.593 22.3696 20.5622 22.3696 20.5391V20.5237C22.3696 20.5083 22.3773 20.5006 22.3773 20.4929Z" fill="#FC5876"/>
</svg>
