<svg width="50" height="50" viewBox="0 0 89 89" fill="none" xmlns="http://www.w3.org/2000/svg">
<g clip-path="url(#clip0_624_35)">
<path fill-rule="evenodd" clip-rule="evenodd" d="M32.9838 1.52834C56.7186 -4.83087 81.1125 9.25645 87.4717 32.984C93.8309 56.7188 79.7436 81.1126 56.0161 87.4719C32.2813 93.8311 7.88741 79.7438 1.52819 56.0162C-4.83102 32.2814 9.24906 7.88755 32.9838 1.52834Z" fill="#FBD433"/>
<path fill-rule="evenodd" clip-rule="evenodd" d="M33.1571 22.9671C36.2716 22.9671 38.7921 27.7473 38.7921 33.6502C38.7921 39.5532 36.2716 44.3334 33.1571 44.3334C30.0427 44.3334 27.5222 39.5532 27.5222 33.6502C27.5222 27.7546 30.0427 22.9671 33.1571 22.9671ZM16.2451 58.37C16.5493 52.6265 19.5261 50.0698 24.8134 49.8525L20.4967 54.1475C32.585 69.8137 57.4424 69.4733 68.1401 54.1185L64.1782 50.1784C69.4655 50.3957 72.4351 52.9597 72.7465 58.696L69.8783 55.8495C57.8987 76.1802 32.5343 76.9045 18.6715 55.9582L16.2451 58.37ZM55.8417 22.9671C58.9561 22.9671 61.4766 27.7473 61.4766 33.6502C61.4766 39.5532 58.9489 44.3334 55.8417 44.3334C52.7345 44.3334 50.2068 39.5532 50.2068 33.6502C50.1995 27.7546 52.7273 22.9671 55.8417 22.9671Z" fill="#141518"/>
</g>
<defs>
<clipPath id="clip0_624_35">
<rect width="89" height="89" fill="white"/>
</clipPath>
</defs>
</svg>
