<svg width="48" height="48" viewBox="0 0 48 48" fill="none" xmlns="http://www.w3.org/2000/svg">
<path d="M15.8514 31.5243C9.46792 25.1408 9.9107 21.4259 9.9107 21.4259L13.4108 18.2453C14.1567 17.5673 14.3661 16.479 13.9251 15.5724L10.2638 8.04651C9.81805 7.13029 8.82242 6.62555 7.81956 6.80422C5.61051 7.19766 1.93358 8.35994 0.644362 11.7776C-1.24705 16.7901 0.720163 26.7957 10.6501 36.7262C20.5805 46.6567 30.5862 48.6233 35.5987 46.7319C39.0158 45.4421 40.178 41.7658 40.5721 39.5567C40.7507 38.5533 40.246 37.5582 39.3298 37.1125L31.8039 33.4512C30.8973 33.0102 29.809 33.2202 29.131 33.9655L25.9504 37.4656C25.9504 37.4656 22.2355 37.9084 15.852 31.5249L15.8514 31.5243Z" fill="#2781D5"/>
<path d="M31.6204 0.177117C25.8884 1.08672 21.3067 5.75809 20.4542 11.4985C19.9729 14.7423 20.666 17.7905 22.1423 20.3275L20.8218 25.1679C20.592 26.0101 21.365 26.7826 22.2067 26.5527L27.0471 25.2323C29.584 26.7086 32.6317 27.4016 35.876 26.9203C41.617 26.0685 46.2878 21.4861 47.1974 15.7542C48.6593 6.54678 40.8266 -1.28536 31.6198 0.176515L31.6204 0.177117ZM40.607 14.6647C40.607 15.2873 40.1022 15.7927 39.479 15.7927H36.095V19.1766C36.095 19.7993 35.5903 20.3046 34.967 20.3046H32.7111C32.0878 20.3046 31.5831 19.7993 31.5831 19.1766V15.7927H28.1991C27.5759 15.7927 27.0711 15.2873 27.0711 14.6647V12.4087C27.0711 11.7855 27.5759 11.2807 28.1991 11.2807H31.5831V7.89675C31.5831 7.2735 32.0878 6.76877 32.7111 6.76877H34.967C35.5903 6.76877 36.095 7.2735 36.095 7.89675V11.2807H39.479C40.1022 11.2807 40.607 11.7855 40.607 12.4087V14.6647Z" fill="#209F84"/>
</svg>
