<svg width="57" height="47" viewBox="0 0 57 47" fill="none" xmlns="http://www.w3.org/2000/svg">
<path fill-rule="evenodd" clip-rule="evenodd" d="M10.9503 23.677C12.2868 26.0909 13.8267 28.4031 15.8336 30.521C17.8452 32.6482 20.3378 34.5812 23.5748 36.2321C23.8153 36.3524 24.0419 36.3524 24.2453 36.2691C24.5552 36.1489 24.865 35.8992 25.1795 35.5893C25.4199 35.3489 25.7159 34.9697 26.0303 34.5489C27.2743 32.9165 28.8096 30.8817 30.9877 31.8945C31.0339 31.9176 31.0709 31.9407 31.1218 31.9685L38.3681 36.135C38.3913 36.1443 38.4144 36.172 38.4421 36.1813C39.3994 36.8379 39.7924 37.8506 39.8063 38.9975C39.8063 40.1675 39.3762 41.4808 38.7427 42.5906C37.9057 44.0612 36.6802 45.0277 35.2559 45.6751C33.9056 46.2947 32.4027 46.6323 30.9553 46.845C28.6847 47.178 26.5621 46.9653 24.3841 46.2947C22.2569 45.6381 20.1204 44.5513 17.7805 43.1039L17.614 42.9976C16.5365 42.327 15.3804 41.6103 14.2429 40.764C10.0809 37.6241 5.84039 33.0876 3.07965 28.0933C0.762849 23.899 -0.504225 19.3763 0.189428 15.0664C0.57325 12.6988 1.58598 10.5531 3.35249 9.12875C4.8924 7.8848 6.97336 7.20965 9.65549 7.44549C9.96532 7.46861 10.2382 7.64896 10.3815 7.91255L15.029 15.7693C15.7088 16.6526 15.792 17.5266 15.4221 18.396C15.1122 19.1127 14.4879 19.7694 13.6463 20.3891C13.3966 20.6018 13.096 20.8191 12.7862 21.0457C11.7457 21.7995 10.5619 22.6689 10.9734 23.7001L10.9503 23.677Z" fill="#2781D5"/>
<path fill-rule="evenodd" clip-rule="evenodd" d="M23.871 11.8569L26.5485 11.6719C26.604 12.1482 26.7243 12.5135 26.9046 12.7586C27.1959 13.1609 27.6075 13.3598 28.1486 13.3598C28.5509 13.3598 28.8607 13.258 29.0781 13.0499C29.2954 12.8418 29.4018 12.606 29.4018 12.3332C29.4018 12.0742 29.3 11.843 29.0919 11.6395C28.8838 11.436 28.4029 11.2418 27.6491 11.0615C26.4144 10.7563 25.5358 10.3539 25.0086 9.85451C24.4768 9.35045 24.2132 8.71229 24.2132 7.93078C24.2132 7.41747 24.3473 6.93654 24.6202 6.47873C24.893 6.02554 25.3 5.66484 25.8456 5.40588C26.3913 5.14691 27.1358 5.01743 28.0838 5.01743C29.2492 5.01743 30.137 5.25327 30.7475 5.72958C31.3579 6.20127 31.7186 6.95966 31.8388 7.99089L29.1844 8.16199C29.1151 7.71343 28.9671 7.3851 28.7405 7.18163C28.5139 6.97816 28.2041 6.87642 27.8064 6.87642C27.478 6.87642 27.2329 6.95504 27.0665 7.10302C26.9 7.25562 26.8167 7.44059 26.8167 7.65794C26.8167 7.81517 26.8861 7.95852 27.0202 8.08338C27.1543 8.21749 27.4688 8.33772 27.9636 8.4487C29.1937 8.74004 30.0723 9.03137 30.6041 9.33196C31.1359 9.62792 31.5243 9.99786 31.7648 10.4372C32.0053 10.8765 32.1255 11.3667 32.1255 11.9123C32.1255 12.5505 31.9637 13.1424 31.64 13.6789C31.3162 14.2199 30.8631 14.6268 30.285 14.9043C29.707 15.1818 28.9763 15.3205 28.0931 15.3205C26.5439 15.3205 25.4711 14.9922 24.8745 14.3401C24.2872 13.6927 23.9496 12.8603 23.871 11.8569ZM33.1937 10.1736C33.1937 8.54582 33.6053 7.28337 34.4377 6.37237C35.2654 5.46599 36.4215 5.01281 37.8967 5.01281C39.4135 5.01281 40.5788 5.45674 41.402 6.34925C42.2205 7.23712 42.6321 8.4857 42.6321 10.0904C42.6321 11.2557 42.4517 12.2129 42.0956 12.9575C41.7349 13.702 41.2216 14.2846 40.5418 14.6962C39.8667 15.1124 39.0204 15.3205 38.0123 15.3205C36.9857 15.3205 36.1348 15.1402 35.4597 14.7841C34.7891 14.4234 34.2388 13.8592 33.8226 13.0823C33.4018 12.31 33.1937 11.3389 33.1937 10.1736ZM36.01 10.1875C36.01 11.1956 36.1811 11.917 36.5233 12.3563C36.8655 12.7956 37.3325 13.0176 37.9198 13.0176C38.5256 13.0176 38.9927 12.8002 39.3256 12.3702C39.6586 11.9401 39.8251 11.1632 39.8251 10.0534C39.8251 9.11461 39.6493 8.43021 39.3071 7.99552C38.9603 7.56083 38.4886 7.34348 37.9013 7.34348C37.3372 7.34348 36.8793 7.56545 36.5371 8.00477C36.1811 8.44408 36.01 9.17473 36.01 10.1875ZM43.654 11.8569L46.3315 11.6719C46.387 12.1482 46.5073 12.5135 46.6876 12.7586C46.9789 13.1609 47.3905 13.3598 47.9316 13.3598C48.3339 13.3598 48.6437 13.258 48.8611 13.0499C49.0784 12.8418 49.1848 12.606 49.1848 12.3332C49.1848 12.0742 49.083 11.843 48.8749 11.6395C48.6668 11.436 48.1859 11.2418 47.4321 11.0615C46.1974 10.7563 45.3188 10.3539 44.7916 9.85451C44.2598 9.35045 43.9962 8.71229 43.9962 7.93078C43.9962 7.41747 44.1303 6.93654 44.4032 6.47873C44.676 6.02554 45.083 5.66484 45.6286 5.40588C46.1743 5.14691 46.9188 5.01743 47.8668 5.01743C49.0322 5.01743 49.92 5.25327 50.5305 5.72958C51.1409 6.20127 51.5016 6.95966 51.6218 7.99089L48.9674 8.16199C48.8981 7.71343 48.7501 7.3851 48.5235 7.18163C48.2969 6.97816 47.9871 6.87642 47.5894 6.87642C47.261 6.87642 47.0159 6.95504 46.8495 7.10302C46.683 7.25562 46.5998 7.44059 46.5998 7.65794C46.5998 7.81517 46.6691 7.95852 46.8032 8.08338C46.9373 8.21749 47.2518 8.33772 47.7466 8.4487C48.9767 8.74004 49.8553 9.03137 50.3871 9.33196C50.9189 9.62792 51.3074 9.99786 51.5478 10.4372C51.7883 10.8765 51.9085 11.3667 51.9085 11.9123C51.9085 12.5505 51.7467 13.1424 51.423 13.6789C51.0993 14.2199 50.6461 14.6268 50.068 14.9043C49.49 15.1818 48.7593 15.3205 47.8761 15.3205C46.3269 15.3205 45.2541 14.9922 44.6575 14.3401C44.0749 13.6927 43.7326 12.8603 43.654 11.8569ZM23.6444 0C22.3496 0 21.2444 0.453187 20.3241 1.36419C19.4039 2.27518 18.96 3.38041 18.96 4.68448V16.1113C18.96 17.4153 19.4131 18.5252 20.3241 19.4316C21.2351 20.3379 22.3404 20.7957 23.6444 20.7957H30.692C30.4237 21.8316 30.0908 22.812 29.6792 23.7368C29.2723 24.671 28.5833 25.5588 27.6306 26.4051C29.4619 25.9288 31.0897 25.2166 32.5278 24.2733C33.9568 23.3391 35.1961 22.1738 36.2227 20.7911H52.112C53.4068 20.7911 54.512 20.3241 55.4323 19.4269C56.3525 18.5159 56.7965 17.4107 56.7965 16.102V4.67985C56.7965 3.38503 56.3433 2.27981 55.4323 1.35956C54.5213 0.443939 53.4114 0 52.1074 0C47.9454 0 27.8064 0 23.6444 0Z" fill="#FF0000"/>
</svg>
