<svg width="55" height="55" viewBox="0 0 55 55" fill="none" xmlns="http://www.w3.org/2000/svg">
<path d="M27.5005 43.7664C36.4841 43.7664 43.7667 36.4838 43.7667 27.5003C43.7667 18.5167 36.4841 11.2341 27.5005 11.2341C18.517 11.2341 11.2344 18.5167 11.2344 27.5003C11.2344 36.4838 18.517 43.7664 27.5005 43.7664Z" fill="#FF6B00"/>
<path d="M27.4987 7.60647C26.5625 7.60647 25.8604 6.90433 25.8604 5.96815V1.63832C25.8604 0.702136 26.5625 0 27.4987 0C28.4348 0 29.137 0.702136 29.137 1.63832V5.96815C29.137 6.90433 28.4348 7.60647 27.4987 7.60647Z" fill="#FAA707"/>
<path d="M27.4987 55.0003C26.5625 55.0003 25.8604 54.2981 25.8604 53.3619V49.0321C25.8604 48.0959 26.5625 47.3938 27.4987 47.3938C28.4348 47.3938 29.137 48.0959 29.137 49.0321V53.3619C29.137 54.2981 28.4348 55.0003 27.4987 55.0003Z" fill="#FAA707"/>
<path d="M47.3926 27.5001C47.3926 26.564 48.0947 25.8618 49.0309 25.8618H53.3607C54.2969 25.8618 54.999 26.564 54.999 27.5001C54.999 28.4363 54.2969 29.1384 53.3607 29.1384H49.0309C48.0947 29.1384 47.3926 28.4363 47.3926 27.5001Z" fill="#FAA707"/>
<path d="M0 27.5004C0 26.5642 0.702136 25.8621 1.63832 25.8621H5.96815C6.90433 25.8621 7.60647 26.5642 7.60647 27.5004C7.60647 28.4366 6.90433 29.1387 5.96815 29.1387H1.63832C0.702136 29.1387 0 28.4366 0 27.5004Z" fill="#FAA707"/>
<path d="M13.4575 13.4576C12.7554 14.1597 11.7022 14.1597 11.117 13.4576L8.07445 10.415C7.37232 9.71285 7.37232 8.65964 8.07445 8.07453C8.77659 7.48942 9.82979 7.3724 10.4149 8.07453L13.4575 11.1171C14.0426 11.7022 14.0426 12.7554 13.4575 13.4576Z" fill="#FAA707"/>
<path d="M46.9262 46.9258C46.2241 47.628 45.1709 47.628 44.5858 46.9258L41.5432 43.8832C40.8411 43.1811 40.8411 42.1279 41.5432 41.5428C42.2453 40.9577 43.2985 40.8407 43.8837 41.5428L46.9262 44.5854C47.6284 45.2875 47.6284 46.3407 46.9262 46.9258Z" fill="#FAA707"/>
<path d="M41.5432 13.4575C40.8411 12.7554 40.8411 11.7022 41.5432 11.117L44.5858 8.07445C45.2879 7.37232 46.3411 7.37232 46.9262 8.07445C47.5114 8.77659 47.6284 9.82979 46.9262 10.4149L43.8837 13.4575C43.2985 14.0426 42.2453 14.0426 41.5432 13.4575Z" fill="#FAA707"/>
<path d="M8.07445 46.9258C7.37232 46.2236 7.37232 45.1704 8.07445 44.5853L11.117 41.5427C11.8192 40.8406 12.8724 40.8406 13.4575 41.5427C14.0426 42.2449 14.1596 43.2981 13.4575 43.8832L10.4149 46.9258C9.71277 47.6279 8.65957 47.6279 8.07445 46.9258Z" fill="#FAA707"/>
</svg>
